<svg xmlns="http://www.w3.org/2000/svg" xmlns:xlink="http://www.w3.org/1999/xlink" width="500" zoomAndPan="magnify" viewBox="0 0 375 374.999991" height="500" preserveAspectRatio="xMidYMid meet" version="1.0"><defs><g/><clipPath id="6f6fa2e037"><path d="M 83.8125 93.542969 L 291.5625 93.542969 L 291.5625 209 L 83.8125 209 Z M 83.8125 93.542969 " clip-rule="nonzero"/></clipPath><clipPath id="6fb4110003"><path d="M 138.023438 57.78125 L 236.976562 57.78125 L 236.976562 156.734375 L 138.023438 156.734375 Z M 138.023438 57.78125 " clip-rule="nonzero"/></clipPath><clipPath id="bc2cf618f1"><path d="M 187.5 57.78125 C 160.175781 57.78125 138.023438 79.933594 138.023438 107.257812 C 138.023438 134.582031 160.175781 156.734375 187.5 156.734375 C 214.824219 156.734375 236.976562 134.582031 236.976562 107.257812 C 236.976562 79.933594 214.824219 57.78125 187.5 57.78125 " clip-rule="nonzero"/></clipPath><clipPath id="c04a578035"><path d="M 247 218 L 291.5625 218 L 291.5625 262.960938 L 247 262.960938 Z M 247 218 " clip-rule="nonzero"/></clipPath><clipPath id="4052bb5abd"><path d="M 83.8125 218 L 128 218 L 128 262.960938 L 83.8125 262.960938 Z M 83.8125 218 " clip-rule="nonzero"/></clipPath><clipPath id="fc73795ba7"><path d="M 100 199.210938 L 275 199.210938 L 275 247 L 100 247 Z M 100 199.210938 " clip-rule="nonzero"/></clipPath></defs><g clip-path="url(#6f6fa2e037)"><path fill="#000000" d="M 106.183594 178.980469 C 103.367188 169.613281 101.203125 159.84375 99.742188 149.902344 C 106.617188 148.886719 114.5625 146.703125 123.40625 143.40625 C 133.035156 139.8125 143.882812 134.855469 155.652344 128.671875 C 169.679688 121.304688 181.835938 113.835938 187.65625 110.15625 C 187.667969 110.164062 187.675781 110.171875 187.6875 110.175781 C 187.695312 110.171875 187.707031 110.164062 187.71875 110.15625 C 193.539062 113.835938 205.691406 121.304688 219.71875 128.671875 C 231.488281 134.855469 242.339844 139.8125 251.964844 143.40625 C 260.808594 146.703125 268.753906 148.886719 275.628906 149.902344 C 274.167969 159.84375 272.003906 169.613281 269.191406 178.980469 C 266.15625 189.074219 262.289062 198.957031 257.6875 208.382812 C 284.078125 179.8125 291.5625 137.050781 291.5625 137.050781 L 283.707031 136.960938 C 271.253906 136.816406 251.535156 129.839844 226.675781 116.789062 C 207.429688 106.679688 191.941406 96.464844 191.789062 96.363281 L 187.71875 93.667969 L 187.6875 93.6875 L 187.65625 93.667969 L 183.582031 96.363281 C 183.429688 96.464844 167.941406 106.679688 148.695312 116.789062 C 123.839844 129.839844 104.117188 136.816406 91.664062 136.960938 L 83.8125 137.050781 C 83.8125 137.050781 91.296875 179.8125 117.683594 208.382812 C 113.085938 198.957031 109.21875 189.074219 106.183594 178.980469 " fill-opacity="1" fill-rule="nonzero"/></g><path fill="#000000" d="M 187.71875 288.105469 C 187.707031 288.097656 187.695312 288.089844 187.6875 288.085938 C 187.675781 288.089844 187.667969 288.097656 187.65625 288.105469 C 142.640625 259.289062 104.222656 201.449219 96.867188 190.375 C 99.378906 197.539062 102.238281 204.558594 105.410156 211.359375 C 114.148438 230.101562 125.40625 247.570312 138.875 263.277344 C 150.867188 277.257812 162.441406 287.242188 170.039062 293.15625 C 178.398438 299.664062 183.929688 302.835938 184.164062 302.96875 L 187.65625 304.960938 L 187.6875 304.941406 L 187.71875 304.960938 L 191.210938 302.96875 C 191.441406 302.835938 196.972656 299.664062 205.335938 293.15625 C 212.933594 287.242188 224.503906 277.257812 236.496094 263.277344 C 249.964844 247.570312 261.226562 230.101562 269.964844 211.359375 C 273.136719 204.558594 275.992188 197.539062 278.507812 190.375 C 271.148438 201.449219 232.730469 259.289062 187.71875 288.105469 " fill-opacity="1" fill-rule="nonzero"/><g clip-path="url(#6fb4110003)"><g clip-path="url(#bc2cf618f1)"><path fill="#000000" d="M 138.023438 57.78125 L 236.976562 57.78125 L 236.976562 156.734375 L 138.023438 156.734375 Z M 138.023438 57.78125 " fill-opacity="1" fill-rule="nonzero"/></g></g><path fill="#ffffff" d="M 229.976562 94.535156 C 237.007812 117.988281 223.691406 142.703125 200.242188 149.730469 C 176.789062 156.765625 152.074219 143.453125 145.042969 120 C 138.011719 96.546875 151.324219 71.832031 174.777344 64.800781 C 198.226562 57.769531 222.945312 71.082031 229.976562 94.535156 Z M 229.976562 94.535156 " fill-opacity="1" fill-rule="evenodd"/><path fill="#000000" d="M 228.636719 94.9375 C 221.828125 72.222656 197.886719 59.332031 175.179688 66.140625 C 152.46875 72.949219 139.570312 96.886719 146.378906 119.597656 C 153.191406 142.308594 177.128906 155.203125 199.839844 148.394531 C 222.546875 141.585938 235.445312 117.648438 228.636719 94.9375 Z M 229.976562 94.535156 C 222.945312 71.085938 198.226562 57.773438 174.777344 64.800781 C 151.324219 71.832031 138.011719 96.550781 145.042969 120 C 152.074219 143.449219 176.792969 156.765625 200.238281 149.734375 C 223.691406 142.703125 237.007812 117.984375 229.976562 94.535156 Z M 229.976562 94.535156 " fill-opacity="1" fill-rule="evenodd"/><path fill="#000000" d="M 202.332031 66.015625 C 198.972656 66.417969 192.785156 67.171875 189.246094 68.796875 C 184.558594 67.4375 180.585938 67.429688 176.71875 67.609375 C 176.460938 67.046875 174.957031 66.320312 174.695312 65.757812 C 184.960938 63.714844 195.757812 63.878906 202.332031 66.015625 Z M 202.332031 66.015625 " fill-opacity="1" fill-rule="evenodd"/><path fill="#000000" d="M 217.117188 75.425781 C 218.710938 80.109375 220.351562 85.574219 220.988281 89.46875 C 224.621094 95.035156 227.148438 100.199219 229.179688 105.179688 C 229.539062 104.546875 230.515625 103.726562 230.878906 103.09375 C 230.445312 94.3125 226.210938 84.722656 217.117188 75.425781 Z M 217.117188 75.425781 " fill-opacity="1" fill-rule="evenodd"/><path fill="#000000" d="M 221.207031 123.199219 C 222.277344 125.984375 222.988281 128.386719 223.539062 130.617188 C 218.191406 138.878906 211.355469 144.238281 203.289062 147.199219 C 201.535156 145.546875 199.75 143.789062 197.894531 141.808594 C 201.546875 137.785156 204.921875 132.832031 207.890625 126.523438 C 212.480469 126.507812 216.882812 125.273438 221.207031 123.199219 Z M 221.207031 123.199219 " fill-opacity="1" fill-rule="evenodd"/><path fill="#000000" d="M 207.480469 91.246094 C 206.328125 99.488281 204.382812 106.011719 202.21875 112.0625 C 194.503906 111.578125 186.789062 111.332031 179.039062 111.929688 C 176.589844 105.207031 174.3125 98.277344 172.644531 90.605469 C 177.867188 85.882812 183.480469 81.519531 190.171875 78.136719 C 195.882812 81.902344 201.558594 85.558594 207.480469 91.246094 Z M 207.480469 91.246094 " fill-opacity="1" fill-rule="evenodd"/><path fill="#000000" d="M 156.847656 81.183594 C 156.964844 84.84375 157.394531 87.917969 157.96875 90.730469 C 154.390625 96.035156 151.660156 101.792969 149.777344 108.015625 C 148.058594 106.992188 145.777344 104.582031 144.222656 101.730469 C 144.851562 94.230469 147.785156 87.839844 151.898438 82.398438 C 153.488281 81.792969 155.261719 81.792969 156.847656 81.183594 Z M 156.847656 81.183594 " fill-opacity="1" fill-rule="evenodd"/><path fill="#000000" d="M 154.089844 125.957031 C 153.3125 128.039062 152.953125 130.859375 153.03125 133.398438 C 159.179688 140.347656 164.980469 145.058594 170.808594 147.308594 C 174.015625 146.351562 177.242188 144.34375 180.054688 142.082031 C 176.472656 138.167969 173.332031 133.945312 170.640625 129.410156 C 165.003906 128.941406 159.460938 127.929688 154.089844 125.957031 Z M 154.089844 125.957031 " fill-opacity="1" fill-rule="evenodd"/><path fill="#000000" d="M 189.53125 66.609375 C 190.460938 69.058594 191.023438 71.5 191.3125 73.929688 C 191.605469 76.34375 191.625 78.753906 191.488281 81.15625 L 189.570312 81.046875 C 189.703125 78.757812 189.675781 76.460938 189.40625 74.164062 C 189.128906 71.878906 188.605469 69.585938 187.734375 67.292969 Z M 189.53125 66.609375 " fill-opacity="1" fill-rule="nonzero"/><path fill="#000000" d="M 155.046875 90.347656 C 158.570312 89.792969 162.234375 89.363281 165.996094 89.222656 C 169.777344 89.082031 173.640625 89.234375 177.527344 89.835938 L 177.234375 91.742188 C 173.457031 91.152344 169.714844 91.003906 166.066406 91.144531 C 162.398438 91.277344 158.808594 91.699219 155.347656 92.246094 Z M 155.046875 90.347656 " fill-opacity="1" fill-rule="nonzero"/><path fill="#000000" d="M 154.777344 82.140625 C 159.355469 75.054688 167.789062 69.386719 177.226562 65.394531 L 178.042969 67.136719 C 168.464844 70.675781 160.871094 76.035156 156.085938 83.546875 Z M 154.777344 82.140625 " fill-opacity="1" fill-rule="nonzero"/><path fill="#000000" d="M 203.292969 90.832031 C 206.933594 90.0625 210.476562 89.539062 213.917969 89.269531 C 217.359375 89.003906 220.703125 88.992188 223.960938 89.246094 L 223.8125 91.160156 C 220.675781 90.917969 217.429688 90.925781 214.070312 91.1875 C 210.714844 91.449219 207.257812 91.960938 203.691406 92.71875 Z M 203.292969 90.832031 " fill-opacity="1" fill-rule="nonzero"/><path fill="#000000" d="M 229.976562 102.5 C 229.570312 107.503906 228.53125 111.914062 226.910156 115.777344 C 225.28125 119.664062 223.070312 122.988281 220.332031 125.804688 L 218.957031 124.464844 C 221.53125 121.820312 223.609375 118.691406 225.140625 115.039062 C 226.679688 111.363281 227.671875 107.148438 228.0625 102.34375 Z M 229.976562 102.5 " fill-opacity="1" fill-rule="nonzero"/><path fill="#000000" d="M 208.015625 128.492188 C 206.984375 125.066406 205.597656 121.699219 204.015625 118.429688 C 202.433594 115.160156 200.648438 111.972656 198.828125 108.910156 L 200.480469 107.929688 C 202.316406 111.011719 204.121094 114.238281 205.746094 117.59375 C 207.363281 120.945312 208.789062 124.402344 209.851562 127.9375 Z M 208.015625 128.492188 " fill-opacity="1" fill-rule="nonzero"/><path fill="#000000" d="M 181.503906 109.566406 C 179.238281 112.898438 177.164062 116.386719 175.324219 120.074219 C 173.488281 123.757812 171.882812 127.636719 170.558594 131.738281 L 168.730469 131.148438 C 170.085938 126.945312 171.726562 122.980469 173.605469 119.214844 C 175.480469 115.457031 177.601562 111.890625 179.914062 108.484375 Z M 181.503906 109.566406 " fill-opacity="1" fill-rule="nonzero"/><path fill="#000000" d="M 176.691406 140.582031 C 180.148438 141.125 183.847656 141.46875 187.839844 141.457031 C 191.832031 141.445312 196.113281 141.085938 200.734375 140.226562 L 201.09375 142.117188 C 196.339844 143 191.945312 143.367188 187.851562 143.378906 C 183.757812 143.386719 179.957031 143.039062 176.398438 142.476562 Z M 176.691406 140.582031 " fill-opacity="1" fill-rule="nonzero"/><path fill="#000000" d="M 149.433594 104.027344 C 149.898438 108.425781 150.679688 112.777344 151.757812 117.078125 C 152.835938 121.378906 154.214844 125.648438 155.863281 129.886719 L 154.070312 130.582031 C 152.402344 126.292969 151 121.953125 149.898438 117.554688 C 148.796875 113.15625 147.996094 108.714844 147.523438 104.230469 Z M 149.433594 104.027344 " fill-opacity="1" fill-rule="nonzero"/><g fill="#000000" fill-opacity="1"><g transform="translate(129.247762, 200.872677)"><g><path d="M 1.953125 -1.410156 C 5.402344 -1.171875 8.6875 -1.242188 12.660156 -2.03125 C 19.527344 -3.398438 22.4375 -6.601562 21.105469 -13.28125 C 20.046875 -18.605469 16.929688 -20.121094 11.734375 -20.59375 L 7.515625 -21.066406 C 4.703125 -21.285156 2.863281 -21.988281 2.296875 -24.835938 C 1.582031 -28.433594 3.152344 -29.816406 6.933594 -30.566406 C 9.128906 -31.003906 12.417969 -31.320312 15.578125 -31.316406 L 15.160156 -34.875 C 11.117188 -35.1875 8.5 -34.910156 5.277344 -34.269531 C -0.9375 -33.03125 -3.332031 -29.691406 -2.226562 -24.132812 C -1.277344 -19.367188 1.96875 -16.953125 6.96875 -16.734375 L 10.742188 -16.316406 C 14.542969 -16.003906 16.007812 -15.472656 16.6875 -12.0625 C 17.496094 -7.996094 15.578125 -6.644531 11.75 -5.882812 C 8.476562 -5.230469 4.253906 -4.976562 1.527344 -5.015625 Z M 1.953125 -1.410156 "/></g></g></g><g fill="#000000" fill-opacity="1"><g transform="translate(152.764735, 195.860526)"><g><path d="M 22.234375 -33.875 L 23.453125 -17.722656 L 7.78125 -16.542969 L 6.5625 -32.691406 L 2 -32.347656 L 4.417969 -0.332031 L 8.976562 -0.675781 L 8.082031 -12.550781 L 23.753906 -13.734375 L 24.652344 -1.859375 L 29.164062 -2.199219 L 26.75 -34.214844 Z M 22.234375 -33.875 "/></g></g></g><g fill="#000000" fill-opacity="1"><g transform="translate(185.036127, 193.371268)"><g><path d="M 3.800781 -12.988281 C 3.246094 -3.90625 4.816406 0.820312 16.226562 1.515625 C 27.6875 2.214844 29.824219 -2.28125 30.378906 -11.363281 L 30.730469 -17.117188 C 31.171875 -24.390625 30.847656 -30.757812 18.246094 -31.527344 C 5.695312 -32.292969 4.597656 -26.0625 4.152344 -18.738281 Z M 8.351562 -12.519531 L 8.730469 -18.699219 C 9.0625 -24.117188 9.585938 -28.046875 18.003906 -27.535156 C 26.417969 -27.019531 26.507812 -23.003906 26.179688 -17.632812 L 25.800781 -11.453125 C 25.40625 -4.984375 24.320312 -2.046875 16.476562 -2.523438 C 8.582031 -3.007812 7.957031 -6.050781 8.351562 -12.519531 Z M 8.351562 -12.519531 "/></g></g></g><g fill="#000000" fill-opacity="1"><g transform="translate(216.37213, 195.315668)"><g><path d="M 23.644531 -28.179688 L 10.355469 -30.710938 L 4.351562 0.828125 L 8.796875 1.675781 L 10.3125 -6.28125 L 19.15625 -4.597656 C 25.800781 -3.332031 28.804688 -5.863281 29.96875 -11.992188 L 30.960938 -17.1875 C 32.1875 -23.644531 30.054688 -26.960938 23.644531 -28.179688 Z M 25.542969 -12.933594 C 24.6875 -8.441406 22.84375 -7.917969 19.003906 -8.648438 L 11.050781 -10.164062 L 14.054688 -25.933594 L 22.007812 -24.417969 C 26.3125 -23.597656 27.253906 -21.917969 26.46875 -17.796875 Z M 25.542969 -12.933594 "/></g></g></g><g clip-path="url(#c04a578035)"><path fill="#f84a00" d="M 291.5625 230.421875 C 280.105469 225.695312 268.402344 221.78125 256.542969 218.683594 C 253.554688 230.035156 250.566406 241.390625 247.578125 252.746094 C 257.894531 255.441406 268.074219 258.84375 278.035156 262.957031 C 278.003906 256.59375 277.789062 250.191406 277.390625 243.769531 C 281.953125 239.210938 286.675781 234.761719 291.5625 230.421875 Z M 291.5625 230.421875 " fill-opacity="1" fill-rule="nonzero"/></g><g clip-path="url(#4052bb5abd)"><path fill="#f84a00" d="M 83.8125 230.421875 C 95.265625 225.695312 106.96875 221.78125 118.828125 218.683594 C 121.816406 230.039062 124.804688 241.390625 127.792969 252.746094 C 117.476562 255.441406 107.300781 258.84375 97.335938 262.957031 C 97.371094 256.59375 97.585938 250.191406 97.984375 243.769531 C 93.417969 239.210938 88.695312 234.761719 83.8125 230.421875 Z M 83.8125 230.421875 " fill-opacity="1" fill-rule="nonzero"/></g><path fill="#f82d00" d="M 247.578125 252.746094 C 252.710938 250.523438 258.003906 248.472656 263.453125 246.605469 C 259.066406 245.191406 254.652344 243.90625 250.207031 242.746094 C 249.332031 246.078125 248.453125 249.410156 247.578125 252.746094 Z M 247.578125 252.746094 " fill-opacity="1" fill-rule="nonzero"/><path fill="#f82d00" d="M 127.796875 252.746094 C 122.664062 250.523438 117.367188 248.472656 111.917969 246.605469 C 116.304688 245.191406 120.722656 243.90625 125.164062 242.746094 C 126.039062 246.078125 126.917969 249.410156 127.796875 252.746094 Z M 127.796875 252.746094 " fill-opacity="1" fill-rule="nonzero"/><g clip-path="url(#fc73795ba7)"><path fill="#f85f00" d="M 100.964844 212.828125 C 104.585938 223.996094 108.207031 235.167969 111.832031 246.335938 C 161.136719 230.460938 214.234375 230.460938 263.539062 246.335938 C 267.160156 235.167969 270.785156 223.996094 274.40625 212.824219 C 218.035156 194.679688 157.332031 194.679688 100.964844 212.828125 Z M 100.964844 212.828125 " fill-opacity="1" fill-rule="nonzero"/></g><g fill="#ffffff" fill-opacity="1"><g transform="translate(140.892006, 227.858789)"><g><path d="M 3.8125 -0.460938 C 4.117188 -0.507812 4.410156 -0.664062 4.613281 -0.847656 C 4.820312 -1.03125 4.925781 -1.242188 4.882812 -1.4375 C 4.792969 -1.777344 4.648438 -2.53125 4.464844 -3.496094 C 4.285156 -4.460938 4.066406 -5.652344 3.851562 -6.898438 L 9.105469 -7.746094 C 9.605469 -7.828125 9.964844 -7.929688 10.179688 -8.179688 C 10.386719 -8.417969 10.453125 -8.769531 10.359375 -9.34375 C 10.324219 -9.550781 10.230469 -9.75 10.097656 -9.886719 C 9.96875 -10.027344 9.820312 -10.097656 9.664062 -10.070312 C 9.539062 -10.039062 9.355469 -10 9.117188 -9.949219 C 8.617188 -9.855469 7.945312 -9.722656 7.15625 -9.59375 C 6.367188 -9.453125 5.515625 -9.300781 4.683594 -9.164062 C 4.265625 -9.09375 3.871094 -9.027344 3.496094 -8.96875 L 3.300781 -10.164062 C 3.230469 -10.527344 3.175781 -10.859375 3.121094 -11.179688 C 3.066406 -11.503906 3.019531 -11.804688 2.972656 -12.085938 L 2.832031 -12.917969 L 9.261719 -13.980469 C 9.878906 -14.070312 10.324219 -14.210938 10.585938 -14.5 C 10.839844 -14.785156 10.929688 -15.207031 10.8125 -15.902344 C 10.773438 -16.152344 10.648438 -16.398438 10.488281 -16.578125 C 10.332031 -16.753906 10.144531 -16.851562 9.980469 -16.8125 C 9.683594 -16.734375 9.074219 -16.609375 8.296875 -16.449219 C 7.511719 -16.289062 6.558594 -16.109375 5.605469 -15.941406 C 4.648438 -15.773438 3.675781 -15.589844 2.855469 -15.441406 C 2.023438 -15.296875 1.328125 -15.167969 0.945312 -15.105469 L 0.570312 -15.042969 C 0.394531 -15.003906 0.207031 -14.972656 -0.0117188 -14.9375 L -0.644531 -14.832031 C -0.875 -14.792969 -1.113281 -14.753906 -1.351562 -14.707031 L -1.132812 -13.191406 L -0.355469 -13.339844 L 1.398438 -2.402344 C 1.527344 -1.609375 1.695312 -1.058594 2.058594 -0.734375 C 2.410156 -0.410156 2.949219 -0.316406 3.8125 -0.460938 Z M 3.8125 -0.460938 "/></g></g></g><g fill="#ffffff" fill-opacity="1"><g transform="translate(154.141963, 225.656112)"><g><path d="M 6.511719 -0.394531 C 9.027344 -0.664062 10.679688 -1.449219 11.660156 -2.582031 C 12.640625 -3.71875 12.941406 -5.191406 12.75 -6.855469 C 12.675781 -7.453125 12.464844 -8.128906 12.128906 -8.6875 C 11.792969 -9.234375 11.347656 -9.644531 10.796875 -9.710938 L 11.429688 -10.257812 C 10.832031 -10.964844 10.027344 -11.453125 9.105469 -11.734375 C 8.175781 -12.003906 7.140625 -12.074219 6.050781 -11.957031 C 4.328125 -11.769531 2.757812 -11.199219 1.65625 -10.113281 C 0.554688 -9.03125 -0.0507812 -7.449219 0.179688 -5.238281 C 0.347656 -3.558594 0.964844 -2.246094 2.03125 -1.40625 C 3.089844 -0.566406 4.582031 -0.1875 6.511719 -0.394531 Z M 6.550781 -2.390625 C 5.921875 -2.324219 5.203125 -2.5 4.601562 -2.964844 C 4 -3.433594 3.535156 -4.1875 3.414062 -5.308594 C 3.257812 -6.777344 3.601562 -7.800781 4.183594 -8.5 C 4.765625 -9.1875 5.558594 -9.527344 6.34375 -9.613281 C 6.984375 -9.683594 7.546875 -9.5625 8.019531 -9.316406 C 8.492188 -9.070312 8.871094 -8.707031 9.15625 -8.304688 L 9.292969 -8.414062 C 9.296875 -8.191406 9.324219 -7.941406 9.386719 -7.660156 C 9.4375 -7.378906 9.492188 -7.078125 9.539062 -6.742188 C 9.605469 -6.199219 9.640625 -5.578125 9.539062 -4.972656 C 9.433594 -4.367188 9.1875 -3.78125 8.71875 -3.316406 C 8.25 -2.839844 7.554688 -2.5 6.550781 -2.390625 Z M 6.550781 -2.390625 "/></g></g></g><g fill="#ffffff" fill-opacity="1"><g transform="translate(168.005607, 224.155385)"><g><path d="M 6.523438 -0.0195312 C 9.050781 -0.144531 10.746094 -0.832031 11.792969 -1.910156 C 12.835938 -2.984375 13.214844 -4.4375 13.121094 -6.113281 C 13.082031 -6.714844 12.910156 -7.402344 12.605469 -7.976562 C 12.304688 -8.542969 11.882812 -8.976562 11.339844 -9.074219 L 12 -9.582031 C 11.445312 -10.324219 10.667969 -10.855469 9.765625 -11.191406 C 8.851562 -11.515625 7.820312 -11.644531 6.726562 -11.589844 C 5 -11.503906 3.398438 -11.023438 2.234375 -10.003906 C 1.070312 -8.984375 0.378906 -7.441406 0.476562 -5.21875 C 0.550781 -3.53125 1.09375 -2.1875 2.109375 -1.289062 C 3.117188 -0.386719 4.585938 0.078125 6.523438 -0.0195312 Z M 6.675781 -2.011719 C 6.042969 -1.980469 5.335938 -2.199219 4.761719 -2.699219 C 4.191406 -3.195312 3.769531 -3.976562 3.714844 -5.105469 C 3.640625 -6.578125 4.042969 -7.582031 4.664062 -8.246094 C 5.289062 -8.898438 6.097656 -9.191406 6.886719 -9.234375 C 7.527344 -9.265625 8.085938 -9.113281 8.542969 -8.839844 C 9 -8.566406 9.355469 -8.183594 9.621094 -7.765625 L 9.761719 -7.867188 C 9.753906 -7.644531 9.765625 -7.390625 9.8125 -7.109375 C 9.847656 -6.824219 9.882812 -6.519531 9.910156 -6.183594 C 9.949219 -5.636719 9.945312 -5.015625 9.808594 -4.417969 C 9.667969 -3.820312 9.390625 -3.246094 8.894531 -2.808594 C 8.402344 -2.363281 7.6875 -2.0625 6.675781 -2.011719 Z M 6.675781 -2.011719 "/></g></g></g><g fill="#ffffff" fill-opacity="1"><g transform="translate(181.960347, 223.501772)"><g><path d="M 5.578125 0.347656 C 6.113281 0.398438 6.894531 0.324219 7.632812 0.125 C 8.371094 -0.078125 9.078125 -0.382812 9.46875 -0.773438 C 9.859375 -1.164062 9.960938 -1.636719 9.488281 -2.175781 C 9.363281 -2.3125 9.234375 -2.394531 9.097656 -2.417969 C 8.824219 -2.460938 8.519531 -2.355469 8.210938 -2.183594 C 8.054688 -2.101562 7.894531 -2.027344 7.738281 -1.953125 C 7.410156 -1.816406 7.085938 -1.710938 6.746094 -1.835938 C 5.902344 -1.910156 5.417969 -2.277344 5.132812 -2.878906 C 4.847656 -3.480469 4.765625 -4.304688 4.753906 -5.304688 C 4.753906 -5.398438 4.753906 -5.558594 4.761719 -5.800781 C 4.773438 -6.265625 4.804688 -6.9375 4.859375 -7.761719 L 4.921875 -9.046875 L 7.800781 -9.082031 C 8.019531 -9.082031 8.261719 -9.175781 8.441406 -9.324219 C 8.621094 -9.46875 8.746094 -9.671875 8.746094 -9.925781 C 8.746094 -10.566406 8.367188 -10.976562 7.988281 -10.96875 L 5.027344 -10.871094 L 5.121094 -12.539062 C 5.171875 -13.59375 5.234375 -14.46875 5.289062 -15.300781 L 2.070312 -15.234375 C 2.050781 -14.824219 2.03125 -14.371094 2 -13.886719 C 1.976562 -13.476562 1.957031 -13 1.925781 -12.472656 C 1.894531 -11.933594 1.871094 -11.375 1.839844 -10.777344 L 0.386719 -10.734375 L 0.441406 -8.992188 L 1.757812 -9.003906 C 1.683594 -7.582031 1.652344 -6.230469 1.644531 -5.273438 C 1.632812 -3.554688 1.84375 -2.234375 2.445312 -1.285156 C 3.046875 -0.339844 4.027344 0.21875 5.578125 0.347656 Z M 5.578125 0.347656 "/></g></g></g><g fill="#ffffff" fill-opacity="1"><g transform="translate(192.047377, 223.43035)"><g><path d="M 8.324219 0.722656 C 9.199219 0.769531 10.152344 0.679688 11.046875 0.355469 C 11.9375 0.03125 12.769531 -0.527344 13.417969 -1.402344 C 14.050781 -2.277344 14.515625 -3.464844 14.648438 -5.0625 C 14.804688 -6.617188 14.597656 -7.980469 13.964844 -8.984375 C 13.328125 -9.976562 12.230469 -10.613281 10.578125 -10.699219 C 9.242188 -10.769531 8.242188 -10.417969 7.460938 -9.835938 C 6.683594 -9.253906 6.144531 -8.457031 5.734375 -7.644531 C 5.324219 -6.820312 5.070312 -5.988281 4.855469 -5.355469 C 4.871094 -5.640625 4.933594 -6.441406 5.007812 -7.460938 C 5.042969 -7.976562 5.082031 -8.53125 5.125 -9.144531 L 5.25 -10.964844 C 5.355469 -12.394531 5.46875 -13.972656 5.601562 -15.707031 L 2.34375 -15.609375 L 1.574219 -0.605469 C 1.867188 -0.570312 2.167969 -0.511719 2.472656 -0.441406 C 2.773438 -0.375 3.054688 -0.308594 3.328125 -0.261719 C 3.871094 -0.148438 4.34375 -0.113281 4.621094 -0.355469 C 5.183594 0.191406 6.386719 0.625 8.324219 0.722656 Z M 7.910156 -1.324219 C 7.195312 -1.363281 6.671875 -1.429688 6.222656 -1.515625 C 5.773438 -1.605469 5.417969 -1.707031 5.078125 -1.839844 C 5.261719 -2.757812 5.539062 -3.800781 5.90625 -4.785156 C 6.273438 -5.769531 6.742188 -6.683594 7.34375 -7.351562 C 7.949219 -8.015625 8.699219 -8.410156 9.625 -8.363281 C 10.929688 -8.296875 11.515625 -7.378906 11.417969 -5.484375 C 11.367188 -4.460938 11.09375 -3.640625 10.710938 -3.027344 C 10.332031 -2.402344 9.835938 -1.964844 9.335938 -1.695312 C 8.835938 -1.414062 8.324219 -1.304688 7.910156 -1.324219 Z M 7.910156 -1.324219 "/></g></g></g><g fill="#ffffff" fill-opacity="1"><g transform="translate(206.984876, 224.201958)"><g><path d="M 11.996094 1.640625 C 12.257812 1.671875 12.480469 1.652344 12.667969 1.601562 C 13.03125 1.492188 13.261719 1.328125 13.375 1.171875 C 13.425781 1.101562 13.449219 1.0625 13.460938 1.050781 C 13.425781 0.996094 13.390625 0.820312 13.351562 0.511719 C 13.3125 0.207031 13.289062 -0.25 13.285156 -0.875 C 13.277344 -2.121094 13.363281 -4.039062 13.710938 -6.835938 C 13.597656 -6.867188 13.484375 -6.902344 13.359375 -6.949219 L 13.023438 -7.050781 C 12.886719 -7.085938 12.753906 -7.121094 12.621094 -7.167969 L 13.167969 -7.871094 C 12.605469 -8.453125 11.992188 -9.019531 11.203125 -9.46875 C 10.40625 -9.921875 9.445312 -10.25 8.1875 -10.390625 C 7.183594 -10.503906 6.15625 -10.429688 5.195312 -10.113281 C 4.238281 -9.792969 3.371094 -9.246094 2.679688 -8.398438 C 1.980469 -7.554688 1.472656 -6.421875 1.257812 -4.960938 C 1.011719 -3.429688 1.21875 -2.058594 1.867188 -1.03125 C 2.515625 -0.00390625 3.582031 0.6875 5.082031 0.855469 C 6.714844 1.039062 7.859375 0.59375 8.683594 -0.152344 C 9.511719 -0.898438 10.019531 -1.921875 10.398438 -2.929688 C 10.261719 -1.726562 10.160156 -0.824219 10.238281 0.0859375 C 10.308594 0.605469 10.523438 0.96875 10.832031 1.214844 C 11.144531 1.460938 11.542969 1.589844 11.996094 1.640625 Z M 6.136719 -1.082031 C 5.5625 -1.148438 5.078125 -1.488281 4.761719 -2.054688 C 4.429688 -2.621094 4.273438 -3.382812 4.378906 -4.335938 C 4.542969 -5.792969 5.140625 -6.765625 5.882812 -7.339844 C 6.625 -7.914062 7.539062 -8.089844 8.332031 -8 C 9.261719 -7.863281 10.019531 -7.246094 10.617188 -6.5 C 10.339844 -5.640625 10.023438 -4.722656 9.632812 -3.886719 C 9.242188 -3.046875 8.777344 -2.316406 8.210938 -1.796875 C 7.644531 -1.277344 6.964844 -0.992188 6.136719 -1.082031 Z M 6.136719 -1.082031 "/></g></g></g><g fill="#ffffff" fill-opacity="1"><g transform="translate(221.22917, 225.882912)"><g><path d="M 3.382812 0.824219 C 3.683594 0.871094 3.980469 0.808594 4.226562 0.6875 C 4.457031 0.5625 4.632812 0.398438 4.734375 0.230469 C 4.742188 -0.0351562 4.824219 -0.640625 4.953125 -1.460938 L 5.164062 -2.839844 C 5.324219 -3.847656 5.511719 -4.992188 5.707031 -6.199219 C 5.8125 -6.804688 5.90625 -7.40625 6.007812 -8.007812 C 6.367188 -10.121094 6.761719 -12.460938 7.203125 -15.027344 L 6.9375 -15.023438 C 6.523438 -15.046875 5.828125 -15.101562 5.132812 -15.164062 C 4.441406 -15.230469 3.738281 -15.308594 3.363281 -15.367188 L 3.066406 -13.875 L 3.914062 -13.773438 L 1.769531 -1.773438 C 1.605469 -0.988281 1.578125 -0.40625 1.8125 0.015625 C 2.035156 0.433594 2.519531 0.6875 3.382812 0.824219 Z M 3.382812 0.824219 "/></g></g></g><g fill="#ffffff" fill-opacity="1"><g transform="translate(227.276089, 226.818334)"><g><path d="M 3.359375 0.90625 C 3.660156 0.960938 3.960938 0.910156 4.207031 0.792969 C 4.441406 0.675781 4.621094 0.515625 4.726562 0.351562 C 4.742188 0.0859375 4.839844 -0.519531 4.988281 -1.335938 L 5.234375 -2.707031 C 5.417969 -3.714844 5.632812 -4.851562 5.863281 -6.054688 C 5.980469 -6.652344 6.089844 -7.253906 6.210938 -7.855469 C 6.621094 -9.957031 7.074219 -12.285156 7.578125 -14.839844 L 7.3125 -14.84375 C 6.902344 -14.878906 6.207031 -14.949219 5.515625 -15.03125 C 4.820312 -15.113281 4.121094 -15.207031 3.746094 -15.277344 L 3.414062 -13.792969 L 4.261719 -13.671875 L 1.8125 -1.730469 C 1.628906 -0.949219 1.585938 -0.367188 1.8125 0.0585938 C 2.023438 0.484375 2.5 0.753906 3.359375 0.90625 Z M 3.359375 0.90625 "/></g></g></g><g fill="#000000" fill-opacity="1"><g transform="translate(174.756356, 255.137147)"><g><path d="M 1.527344 0.0546875 C 2.140625 0.0585938 2.855469 0.0546875 3.527344 0.0429688 C 4.195312 0.0351562 4.832031 0.0078125 5.300781 -0.015625 C 5.535156 -0.0585938 5.675781 -0.203125 5.734375 -0.371094 C 5.792969 -0.535156 5.777344 -0.730469 5.703125 -0.875 C 5.625 -1.019531 5.492188 -1.117188 5.320312 -1.097656 C 4.78125 -1.046875 4.152344 -1.019531 3.496094 -1.011719 C 2.839844 -1 2.167969 -0.996094 1.5625 -0.996094 C 2.167969 -1.332031 2.800781 -1.714844 3.371094 -2.125 C 3.933594 -2.535156 4.445312 -2.972656 4.808594 -3.417969 C 5.175781 -3.867188 5.398438 -4.324219 5.398438 -4.785156 C 5.398438 -5.550781 5.109375 -6.089844 4.628906 -6.4375 C 4.144531 -6.789062 3.460938 -6.949219 2.679688 -6.949219 C 2.039062 -6.949219 1.53125 -6.851562 1.164062 -6.726562 C 0.792969 -6.597656 0.550781 -6.449219 0.429688 -6.355469 L 0.992188 -5.539062 C 1.019531 -5.554688 1.074219 -5.585938 1.15625 -5.636719 C 1.238281 -5.683594 1.34375 -5.734375 1.46875 -5.789062 C 1.722656 -5.890625 2.070312 -5.988281 2.484375 -5.988281 C 3.367188 -5.988281 3.824219 -5.636719 3.824219 -4.746094 C 3.824219 -4.453125 3.640625 -4.105469 3.355469 -3.734375 C 3.0625 -3.367188 2.675781 -2.976562 2.261719 -2.605469 C 1.847656 -2.238281 1.410156 -1.890625 1.027344 -1.605469 C 0.640625 -1.316406 0.320312 -1.089844 0.125 -0.96875 C 0.00390625 -0.894531 -0.078125 -0.78125 -0.078125 -0.648438 C -0.078125 -0.453125 -0.0078125 -0.363281 0.046875 -0.285156 C 0.105469 -0.210938 0.152344 -0.140625 0.105469 0 C 0.394531 0.0234375 0.914062 0.046875 1.527344 0.0546875 Z M 1.527344 0.0546875 "/></g></g></g><g fill="#000000" fill-opacity="1"><g transform="translate(180.781506, 255.137147)"><g><path d="M 3.488281 0.125 C 4.105469 0.125 4.703125 0.0078125 5.226562 -0.234375 C 5.753906 -0.476562 6.199219 -0.855469 6.523438 -1.386719 C 6.84375 -1.917969 7.027344 -2.601562 7.027344 -3.460938 C 7.027344 -4.460938 6.730469 -5.304688 6.191406 -5.910156 C 5.644531 -6.507812 4.871094 -6.851562 3.917969 -6.851562 C 3.019531 -6.851562 2.304688 -6.65625 1.761719 -6.328125 C 1.210938 -5.996094 0.828125 -5.535156 0.578125 -4.996094 C 0.332031 -4.453125 0.222656 -3.84375 0.230469 -3.214844 C 0.234375 -2.832031 0.320312 -2.414062 0.46875 -2.082031 C 0.613281 -1.746094 0.816406 -1.496094 1.085938 -1.464844 L 0.734375 -1.234375 C 1.019531 -0.773438 1.410156 -0.433594 1.878906 -0.210938 C 2.34375 0.015625 2.890625 0.125 3.488281 0.125 Z M 3.457031 -0.949219 C 3.042969 -0.949219 2.683594 -1.066406 2.394531 -1.246094 C 2.101562 -1.421875 1.878906 -1.660156 1.734375 -1.898438 L 1.59375 -1.804688 C 1.609375 -1.871094 1.613281 -1.949219 1.613281 -2.039062 C 1.613281 -2.125 1.609375 -2.222656 1.605469 -2.335938 C 1.585938 -2.546875 1.566406 -2.816406 1.5625 -3.128906 C 1.546875 -3.5 1.589844 -3.929688 1.714844 -4.328125 C 1.84375 -4.726562 2.050781 -5.089844 2.386719 -5.363281 C 2.722656 -5.632812 3.183594 -5.800781 3.808594 -5.800781 C 4.214844 -5.800781 4.660156 -5.632812 5.003906 -5.261719 C 5.347656 -4.886719 5.585938 -4.304688 5.585938 -3.46875 C 5.585938 -2.535156 5.304688 -1.902344 4.898438 -1.507812 C 4.488281 -1.113281 3.957031 -0.949219 3.457031 -0.949219 Z M 3.457031 -0.949219 "/></g></g></g><g fill="#000000" fill-opacity="1"><g transform="translate(188.283789, 255.137147)"><g><path d="M 1.527344 0.0546875 C 2.140625 0.0585938 2.855469 0.0546875 3.527344 0.0429688 C 4.195312 0.0351562 4.832031 0.0078125 5.300781 -0.015625 C 5.535156 -0.0585938 5.675781 -0.203125 5.734375 -0.371094 C 5.792969 -0.535156 5.777344 -0.730469 5.703125 -0.875 C 5.625 -1.019531 5.492188 -1.117188 5.320312 -1.097656 C 4.78125 -1.046875 4.152344 -1.019531 3.496094 -1.011719 C 2.839844 -1 2.167969 -0.996094 1.5625 -0.996094 C 2.167969 -1.332031 2.800781 -1.714844 3.371094 -2.125 C 3.933594 -2.535156 4.445312 -2.972656 4.808594 -3.417969 C 5.175781 -3.867188 5.398438 -4.324219 5.398438 -4.785156 C 5.398438 -5.550781 5.109375 -6.089844 4.628906 -6.4375 C 4.144531 -6.789062 3.460938 -6.949219 2.679688 -6.949219 C 2.039062 -6.949219 1.53125 -6.851562 1.164062 -6.726562 C 0.792969 -6.597656 0.550781 -6.449219 0.429688 -6.355469 L 0.992188 -5.539062 C 1.019531 -5.554688 1.074219 -5.585938 1.15625 -5.636719 C 1.238281 -5.683594 1.34375 -5.734375 1.46875 -5.789062 C 1.722656 -5.890625 2.070312 -5.988281 2.484375 -5.988281 C 3.367188 -5.988281 3.824219 -5.636719 3.824219 -4.746094 C 3.824219 -4.453125 3.640625 -4.105469 3.355469 -3.734375 C 3.0625 -3.367188 2.675781 -2.976562 2.261719 -2.605469 C 1.847656 -2.238281 1.410156 -1.890625 1.027344 -1.605469 C 0.640625 -1.316406 0.320312 -1.089844 0.125 -0.96875 C 0.00390625 -0.894531 -0.078125 -0.78125 -0.078125 -0.648438 C -0.078125 -0.453125 -0.0078125 -0.363281 0.046875 -0.285156 C 0.105469 -0.210938 0.152344 -0.140625 0.105469 0 C 0.394531 0.0234375 0.914062 0.046875 1.527344 0.0546875 Z M 1.527344 0.0546875 "/></g></g></g><g fill="#000000" fill-opacity="1"><g transform="translate(194.308938, 255.137147)"><g><path d="M 2.484375 0.132812 C 3.269531 0.132812 4.003906 -0.0390625 4.542969 -0.394531 C 5.082031 -0.75 5.421875 -1.296875 5.421875 -2.058594 C 5.421875 -2.605469 5.265625 -2.992188 4.976562 -3.257812 C 4.679688 -3.527344 4.242188 -3.675781 3.675781 -3.757812 C 3.992188 -3.871094 4.292969 -4.03125 4.511719 -4.25 C 4.726562 -4.46875 4.867188 -4.75 4.867188 -5.121094 C 4.867188 -5.59375 4.722656 -5.953125 4.484375 -6.21875 C 4.246094 -6.488281 3.914062 -6.65625 3.539062 -6.769531 C 3.164062 -6.882812 2.753906 -6.921875 2.347656 -6.921875 C 1.921875 -6.921875 1.554688 -6.871094 1.253906 -6.808594 C 0.953125 -6.746094 0.714844 -6.664062 0.554688 -6.585938 L 0.792969 -5.75 C 1.109375 -5.851562 1.574219 -5.949219 2.082031 -5.949219 C 2.179688 -5.949219 2.359375 -5.9375 2.554688 -5.894531 C 2.746094 -5.851562 2.960938 -5.761719 3.121094 -5.613281 C 3.28125 -5.457031 3.398438 -5.238281 3.398438 -4.910156 C 3.398438 -4.746094 3.367188 -4.605469 3.300781 -4.492188 C 3.171875 -4.261719 2.960938 -4.113281 2.707031 -4.03125 C 2.449219 -3.949219 2.199219 -3.90625 1.984375 -3.890625 C 1.871094 -3.878906 1.785156 -3.871094 1.722656 -3.863281 L 1.714844 -3.863281 C 1.566406 -3.863281 1.484375 -3.773438 1.449219 -3.65625 C 1.410156 -3.539062 1.425781 -3.394531 1.488281 -3.28125 C 1.546875 -3.164062 1.652344 -3.078125 1.804688 -3.09375 C 1.953125 -3.097656 2.105469 -3.097656 2.265625 -3.097656 C 2.425781 -3.097656 2.582031 -3.089844 2.734375 -3.074219 C 3.039062 -3.035156 3.316406 -2.960938 3.515625 -2.8125 C 3.714844 -2.660156 3.847656 -2.429688 3.847656 -2.097656 C 3.847656 -1.648438 3.675781 -1.332031 3.398438 -1.125 C 3.121094 -0.914062 2.726562 -0.820312 2.285156 -0.820312 C 2.078125 -0.820312 1.886719 -0.835938 1.714844 -0.871094 C 1.371094 -0.933594 1.117188 -1.019531 0.953125 -1.097656 L 0.78125 -1.183594 C 0.667969 -1.277344 0.523438 -1.296875 0.402344 -1.257812 C 0.28125 -1.21875 0.164062 -1.128906 0.09375 -0.996094 C -0.0195312 -0.789062 0.0234375 -0.519531 0.21875 -0.371094 C 0.339844 -0.277344 0.554688 -0.152344 0.910156 -0.046875 C 1.265625 0.0546875 1.769531 0.132812 2.484375 0.132812 Z M 2.484375 0.132812 "/></g></g></g></svg>