<svg xmlns="http://www.w3.org/2000/svg" xmlns:xlink="http://www.w3.org/1999/xlink" width="500" zoomAndPan="magnify" viewBox="0 0 375 374.999991" height="500" preserveAspectRatio="xMidYMid meet" version="1.0"><defs><g/><clipPath id="04ded645eb"><path d="M 50 220 L 142 220 L 142 265.644531 L 50 265.644531 Z M 50 220 " clip-rule="nonzero"/></clipPath><clipPath id="2284ac88a7"><path d="M 141 115 L 163.5 115 L 163.5 210 L 141 210 Z M 141 115 " clip-rule="nonzero"/></clipPath><clipPath id="1499c760fd"><path d="M 22 220 L 114 220 L 114 265.644531 L 22 265.644531 Z M 22 220 " clip-rule="nonzero"/></clipPath><clipPath id="e4fac2a8b3"><path d="M 71 87.894531 L 93 87.894531 L 93 108 L 71 108 Z M 71 87.894531 " clip-rule="nonzero"/></clipPath></defs><g clip-path="url(#04ded645eb)"><path fill="#004aad" d="M 122.890625 226.632812 C 120.125 229.171875 117.253906 231.582031 114.273438 233.863281 C 115.914062 231.980469 117.339844 229.949219 118.550781 227.769531 C 115.8125 228.445312 113.054688 229.03125 110.289062 229.53125 C 109.613281 230.695312 109.023438 231.902344 108.523438 233.148438 C 108.03125 234.296875 107.640625 235.40625 107.164062 236.492188 C 106.734375 237.601562 106.199219 238.65625 105.5625 239.660156 C 105.445312 239.84375 105.3125 240.019531 105.191406 240.207031 C 97.933594 244.855469 90.371094 248.945312 82.507812 252.472656 C 72.070312 257.175781 61.359375 261.136719 50.371094 264.355469 L 55.664062 265.574219 C 67.746094 261.863281 79.445312 257.191406 90.761719 251.558594 C 92.667969 250.597656 94.554688 249.582031 96.433594 248.53125 C 97.03125 248.53125 97.640625 248.53125 98.25 248.574219 C 100.960938 248.824219 103.664062 248.730469 106.355469 248.300781 C 108.265625 247.894531 110.105469 247.273438 111.875 246.441406 C 113.75 245.523438 115.542969 244.457031 117.246094 243.25 C 118.859375 242.101562 120.375 240.835938 121.789062 239.445312 C 122.441406 238.804688 123.039062 238.175781 123.550781 237.578125 C 124.0625 236.976562 124.53125 236.367188 124.910156 235.8125 C 121.636719 238.1875 117.140625 238.960938 111.566406 240.496094 C 110.207031 240.867188 108.789062 241.28125 107.296875 241.757812 C 111.257812 239.058594 115.09375 236.164062 118.761719 233.085938 C 119.644531 232.894531 120.585938 232.734375 121.503906 232.59375 C 122.6875 232.417969 123.921875 232.277344 125.207031 232.011719 C 126.625 231.710938 128.007812 231.292969 129.355469 230.757812 C 133.058594 229.035156 136.222656 226.609375 138.84375 223.472656 C 139.519531 222.714844 140.15625 221.921875 140.746094 221.089844 C 140.96875 220.792969 141.171875 220.5 141.375 220.210938 C 135.347656 222.742188 129.1875 224.882812 122.890625 226.632812 Z M 122.890625 226.632812 " fill-opacity="1" fill-rule="nonzero"/></g><g clip-path="url(#2284ac88a7)"><path fill="#004aad" d="M 156.683594 173.503906 C 155.800781 175.015625 154.917969 176.636719 153.957031 178.425781 C 155.0625 173.609375 155.800781 168.734375 156.171875 163.804688 C 156.683594 162.984375 157.230469 162.214844 157.804688 161.449219 C 159.449219 159.4375 160.785156 157.238281 161.816406 154.851562 C 163.089844 151.222656 163.515625 147.496094 163.09375 143.675781 C 162.84375 140.339844 162.050781 137.136719 160.714844 134.070312 C 161.003906 137.773438 159.390625 141.761719 157.847656 146.949219 C 157.351562 148.578125 156.867188 150.324219 156.425781 152.238281 C 156.261719 146.671875 155.703125 141.144531 154.761719 135.65625 C 155.183594 134 155.355469 132.316406 155.277344 130.609375 C 155.199219 128.902344 154.871094 127.242188 154.300781 125.628906 C 153.230469 122.195312 151.835938 118.894531 150.121094 115.734375 C 149.496094 117.894531 149.148438 120.097656 149.074219 122.347656 C 149.019531 124.75 149.34375 127.105469 150.042969 129.402344 C 150.667969 131.105469 151.398438 132.757812 152.238281 134.359375 C 152.335938 134.589844 152.441406 134.820312 152.539062 135.039062 C 152.9375 137.269531 153.273438 139.507812 153.542969 141.761719 C 153.546875 141.78125 153.546875 141.800781 153.542969 141.824219 C 152.714844 139.472656 151.632812 137.25 150.296875 135.144531 C 147.519531 130.789062 144.644531 128.089844 143.480469 125.039062 C 143.464844 127.953125 143.773438 130.835938 144.417969 133.683594 C 145.035156 136.960938 146.15625 140.058594 147.785156 142.96875 C 149.117188 144.984375 150.585938 146.886719 152.195312 148.683594 C 153.035156 149.695312 153.753906 150.789062 154.347656 151.964844 C 154.347656 153.21875 154.417969 154.472656 154.417969 155.714844 C 154.425781 159.585938 154.207031 163.441406 153.765625 167.289062 C 153.519531 164.777344 152.96875 162.339844 152.113281 159.964844 C 150.351562 155.035156 148.066406 151.824219 147.519531 148.554688 C 146.933594 151.421875 146.65625 154.320312 146.683594 157.25 C 146.589844 160.597656 147 163.878906 147.910156 167.101562 C 148.300781 168.308594 148.769531 169.484375 149.320312 170.628906 C 149.804688 171.714844 150.332031 172.722656 150.800781 173.742188 C 151.265625 174.773438 151.644531 175.832031 151.9375 176.917969 C 151.984375 177.113281 152.019531 177.308594 152.054688 177.511719 C 151.753906 178.824219 151.4375 180.15625 151.082031 181.453125 C 150.074219 185.105469 148.839844 188.683594 147.378906 192.179688 C 147.574219 191.09375 147.6875 190.035156 147.785156 189.046875 C 147.875 187.628906 147.875 186.214844 147.785156 184.796875 C 147.414062 179.503906 146.019531 175.789062 146.292969 172.449219 C 145.023438 175.097656 144.015625 177.84375 143.277344 180.6875 C 142.292969 183.910156 141.785156 187.210938 141.753906 190.582031 C 141.898438 193.03125 142.191406 195.464844 142.636719 197.875 C 142.777344 199.011719 142.832031 200.152344 142.792969 201.296875 C 142.792969 201.441406 142.792969 201.589844 142.75 201.738281 C 142.707031 201.890625 142.503906 202.144531 142.386719 202.355469 L 145.914062 209.546875 C 146.4375 209.210938 146.964844 208.859375 147.511719 208.453125 C 150.597656 205.824219 152.957031 202.660156 154.59375 198.953125 C 156.121094 195.738281 157.0625 192.359375 157.414062 188.816406 C 155.835938 192.453125 152.40625 195.371094 148.339844 199.277344 C 147.34375 200.265625 146.222656 201.273438 145.148438 202.417969 L 144.144531 203.496094 C 146.640625 199.097656 148.769531 194.535156 150.535156 189.796875 C 151.277344 189.101562 152.035156 188.472656 152.847656 187.847656 C 154.988281 186.289062 156.875 184.464844 158.5 182.371094 C 160.699219 179.058594 162.058594 175.433594 162.574219 171.496094 C 162.855469 169.613281 162.988281 167.71875 162.972656 165.816406 C 162.949219 164.28125 162.785156 162.765625 162.476562 161.261719 C 161.9375 165.03125 159.46875 168.679688 156.683594 173.503906 Z M 156.683594 173.503906 " fill-opacity="1" fill-rule="nonzero"/></g><path fill="#0097b2" d="M 42.59375 201.820312 C 38.476562 193.921875 35.628906 185.589844 34.050781 176.824219 C 31.710938 163.710938 31.53125 150.574219 33.511719 137.402344 L 81.777344 116.765625 L 130.042969 137.402344 C 132.019531 150.574219 131.839844 163.710938 129.503906 176.824219 C 127.925781 185.601562 125.074219 193.949219 120.941406 201.855469 C 124.027344 200.867188 127.085938 199.765625 130.113281 198.546875 C 143.78125 166.660156 136.152344 132.542969 136.152344 132.542969 L 81.742188 109.285156 L 27.363281 132.542969 C 27.363281 132.542969 19.746094 166.625 33.386719 198.503906 C 36.414062 199.730469 39.484375 200.835938 42.59375 201.820312 Z M 42.59375 201.820312 " fill-opacity="1" fill-rule="nonzero"/><path fill="#0097b2" d="M 90.832031 231.976562 C 87.882812 233.597656 84.851562 235.050781 81.742188 236.332031 C 78.628906 235.046875 75.59375 233.59375 72.640625 231.976562 C 67.648438 231.675781 62.675781 231.128906 57.71875 230.335938 C 65.050781 236.011719 73.058594 240.476562 81.742188 243.734375 C 90.414062 240.480469 98.417969 236.019531 105.746094 230.351562 C 100.800781 231.140625 95.832031 231.683594 90.832031 231.976562 Z M 90.832031 231.976562 " fill-opacity="1" fill-rule="nonzero"/><path fill="#ffde59" d="M 49.128906 203.734375 C 54.453125 205.117188 59.839844 206.160156 65.296875 206.859375 C 70.75 207.558594 76.226562 207.90625 81.726562 207.90625 C 87.226562 207.90625 92.707031 207.558594 98.160156 206.859375 C 103.617188 206.160156 109.003906 205.117188 114.328125 203.734375 C 117.238281 199.519531 119.683594 195.054688 121.65625 190.328125 C 123.632812 185.601562 125.09375 180.726562 126.046875 175.691406 C 128.257812 164.242188 128.550781 152.746094 126.929688 141.195312 L 110.886719 134.730469 C 111.859375 135.6875 112.785156 136.691406 113.65625 137.738281 C 114.53125 138.785156 115.351562 139.875 116.121094 141.003906 C 116.886719 142.132812 117.59375 143.296875 118.246094 144.496094 C 118.898438 145.691406 119.492188 146.921875 120.023438 148.179688 C 120.554688 149.433594 121.019531 150.714844 121.425781 152.019531 C 121.832031 153.320312 122.171875 154.640625 122.445312 155.976562 C 122.71875 157.316406 122.929688 158.660156 123.070312 160.019531 C 123.210938 161.375 123.285156 162.738281 123.292969 164.101562 C 123.300781 165.464844 123.242188 166.828125 123.117188 168.1875 C 122.988281 169.546875 122.796875 170.894531 122.539062 172.234375 C 122.277344 173.574219 121.953125 174.898438 121.5625 176.207031 C 121.171875 177.511719 120.71875 178.800781 120.203125 180.0625 C 119.6875 181.324219 119.109375 182.558594 118.46875 183.765625 C 117.832031 184.972656 117.136719 186.144531 116.378906 187.28125 C 115.625 188.417969 114.820312 189.515625 113.957031 190.574219 C 113.09375 191.628906 112.183594 192.644531 111.21875 193.609375 C 110.257812 194.578125 109.25 195.496094 108.199219 196.363281 C 107.144531 197.234375 106.054688 198.046875 104.921875 198.808594 C 103.789062 199.570312 102.621094 200.273438 101.417969 200.917969 C 100.214844 201.5625 98.984375 202.148438 97.726562 202.671875 C 96.464844 203.195312 95.183594 203.65625 93.878906 204.054688 C 92.570312 204.453125 91.25 204.785156 89.914062 205.050781 C 88.574219 205.316406 87.226562 205.519531 85.867188 205.652344 C 84.511719 205.785156 83.148438 205.855469 81.785156 205.855469 C 80.421875 205.855469 79.058594 205.785156 77.703125 205.652344 C 76.34375 205.519531 74.996094 205.316406 73.660156 205.050781 C 72.320312 204.785156 71 204.453125 69.695312 204.054688 C 68.386719 203.65625 67.105469 203.195312 65.847656 202.671875 C 64.585938 202.148438 63.355469 201.5625 62.152344 200.917969 C 60.949219 200.273438 59.785156 199.570312 58.652344 198.808594 C 57.515625 198.046875 56.425781 197.234375 55.371094 196.363281 C 54.320312 195.496094 53.3125 194.578125 52.351562 193.609375 C 51.386719 192.644531 50.476562 191.628906 49.613281 190.574219 C 48.75 189.515625 47.945312 188.417969 47.191406 187.28125 C 46.4375 186.144531 45.738281 184.972656 45.101562 183.765625 C 44.460938 182.558594 43.886719 181.324219 43.367188 180.0625 C 42.851562 178.800781 42.398438 177.511719 42.007812 176.207031 C 41.617188 174.898438 41.292969 173.574219 41.035156 172.234375 C 40.773438 170.894531 40.582031 169.546875 40.453125 168.1875 C 40.328125 166.828125 40.269531 165.464844 40.277344 164.101562 C 40.285156 162.738281 40.359375 161.375 40.5 160.019531 C 40.640625 158.660156 40.851562 157.316406 41.125 155.976562 C 41.398438 154.640625 41.738281 153.320312 42.144531 152.019531 C 42.550781 150.714844 43.015625 149.433594 43.546875 148.179688 C 44.078125 146.921875 44.671875 145.691406 45.324219 144.496094 C 45.976562 143.296875 46.683594 142.132812 47.453125 141.003906 C 48.21875 139.875 49.039062 138.785156 49.914062 137.738281 C 50.785156 136.691406 51.710938 135.6875 52.683594 134.730469 L 36.632812 141.207031 C 34.988281 152.554688 35.210938 163.863281 37.304688 175.136719 C 38.234375 180.269531 39.699219 185.246094 41.691406 190.066406 C 43.6875 194.886719 46.164062 199.441406 49.128906 203.734375 Z M 49.128906 203.734375 " fill-opacity="1" fill-rule="nonzero"/><path fill="#0cc0df" d="M 81.742188 125.875 C 80.480469 125.875 79.226562 125.9375 77.972656 126.0625 C 76.71875 126.1875 75.476562 126.371094 74.242188 126.617188 C 73.007812 126.863281 71.785156 127.167969 70.582031 127.535156 C 69.375 127.898438 68.191406 128.324219 67.03125 128.804688 C 65.867188 129.289062 64.730469 129.824219 63.621094 130.417969 C 62.507812 131.011719 61.429688 131.660156 60.382812 132.359375 C 59.335938 133.058594 58.328125 133.808594 57.355469 134.609375 C 56.378906 135.40625 55.449219 136.253906 54.558594 137.144531 C 53.667969 138.035156 52.824219 138.964844 52.027344 139.9375 C 51.226562 140.914062 50.476562 141.921875 49.777344 142.96875 C 49.078125 144.015625 48.433594 145.097656 47.839844 146.207031 C 47.246094 147.316406 46.707031 148.453125 46.226562 149.617188 C 45.746094 150.78125 45.320312 151.964844 44.957031 153.171875 C 44.589844 154.375 44.285156 155.597656 44.039062 156.832031 C 43.792969 158.066406 43.609375 159.308594 43.484375 160.5625 C 43.363281 161.816406 43.300781 163.074219 43.300781 164.332031 C 43.300781 165.59375 43.363281 166.847656 43.484375 168.101562 C 43.609375 169.355469 43.792969 170.597656 44.039062 171.835938 C 44.285156 173.070312 44.589844 174.289062 44.957031 175.496094 C 45.320312 176.699219 45.746094 177.882812 46.226562 179.046875 C 46.707031 180.210938 47.246094 181.347656 47.839844 182.457031 C 48.433594 183.570312 49.078125 184.648438 49.777344 185.695312 C 50.476562 186.742188 51.226562 187.753906 52.027344 188.726562 C 52.824219 189.699219 53.667969 190.632812 54.558594 191.523438 C 55.449219 192.414062 56.378906 193.257812 57.355469 194.058594 C 58.328125 194.855469 59.335938 195.605469 60.382812 196.304688 C 61.429688 197.003906 62.507812 197.652344 63.621094 198.246094 C 64.730469 198.839844 65.867188 199.378906 67.03125 199.859375 C 68.191406 200.339844 69.378906 200.765625 70.582031 201.132812 C 71.785156 201.496094 73.007812 201.804688 74.242188 202.050781 C 75.476562 202.296875 76.71875 202.480469 77.972656 202.601562 C 79.226562 202.726562 80.480469 202.789062 81.742188 202.789062 C 83 202.789062 84.257812 202.726562 85.507812 202.605469 C 86.761719 202.480469 88.007812 202.296875 89.242188 202.050781 C 90.476562 201.808594 91.695312 201.5 92.902344 201.136719 C 94.105469 200.769531 95.289062 200.347656 96.453125 199.867188 C 97.617188 199.382812 98.753906 198.847656 99.863281 198.253906 C 100.976562 197.660156 102.054688 197.015625 103.101562 196.316406 C 104.148438 195.617188 105.160156 194.867188 106.132812 194.066406 C 107.105469 193.269531 108.039062 192.425781 108.929688 191.535156 C 109.820312 190.644531 110.664062 189.714844 111.464844 188.738281 C 112.261719 187.765625 113.011719 186.757812 113.710938 185.710938 C 114.410156 184.664062 115.058594 183.585938 115.652344 182.472656 C 116.246094 181.363281 116.785156 180.226562 117.265625 179.0625 C 117.75 177.902344 118.171875 176.714844 118.539062 175.511719 C 118.90625 174.304688 119.210938 173.085938 119.457031 171.851562 C 119.703125 170.617188 119.890625 169.371094 120.011719 168.117188 C 120.136719 166.867188 120.199219 165.609375 120.199219 164.351562 C 120.199219 163.089844 120.140625 161.832031 120.015625 160.578125 C 119.894531 159.324219 119.710938 158.082031 119.464844 156.84375 C 119.21875 155.609375 118.914062 154.386719 118.546875 153.179688 C 118.183594 151.976562 117.757812 150.789062 117.277344 149.625 C 116.796875 148.460938 116.257812 147.324219 115.664062 146.210938 C 115.070312 145.101562 114.425781 144.019531 113.722656 142.972656 C 113.023438 141.925781 112.273438 140.914062 111.476562 139.941406 C 110.675781 138.964844 109.832031 138.035156 108.941406 137.144531 C 108.050781 136.25 107.117188 135.40625 106.144531 134.605469 C 105.171875 133.808594 104.160156 133.058594 103.113281 132.359375 C 102.066406 131.65625 100.984375 131.011719 99.875 130.417969 C 98.761719 129.824219 97.625 129.285156 96.460938 128.800781 C 95.296875 128.320312 94.113281 127.894531 92.90625 127.53125 C 91.703125 127.164062 90.480469 126.859375 89.246094 126.613281 C 88.011719 126.367188 86.765625 126.183594 85.511719 126.058594 C 84.257812 125.9375 83 125.875 81.742188 125.875 Z M 116.671875 164.332031 C 116.679688 167.835938 116.164062 171.261719 115.128906 174.605469 C 114.089844 177.953125 112.578125 181.066406 110.585938 183.949219 L 109.855469 183.773438 C 109.382812 183.660156 108.984375 183.425781 108.664062 183.0625 C 108.339844 182.699219 108.148438 182.277344 108.089844 181.796875 L 107.148438 173.859375 C 107.105469 173.449219 107.164062 173.054688 107.324219 172.675781 L 112.617188 160.425781 C 112.78125 160.035156 113.035156 159.71875 113.378906 159.46875 C 113.71875 159.21875 114.101562 159.074219 114.519531 159.03125 L 116.285156 158.871094 C 116.558594 160.683594 116.6875 162.503906 116.671875 164.332031 Z M 81.75 199.085938 C 78.164062 199.085938 74.660156 198.546875 71.238281 197.472656 L 67.03125 193.941406 C 66.789062 193.734375 66.59375 193.492188 66.445312 193.207031 C 66.300781 192.921875 66.214844 192.621094 66.1875 192.304688 C 66.160156 191.984375 66.195312 191.671875 66.292969 191.367188 C 66.390625 191.066406 66.542969 190.789062 66.75 190.546875 L 69.394531 187.46875 C 69.863281 186.890625 70.46875 186.597656 71.210938 186.585938 L 84.785156 186.507812 C 85.394531 186.5 85.929688 186.703125 86.390625 187.105469 L 92.421875 192.398438 C 92.5625 192.527344 92.675781 192.679688 92.757812 192.851562 C 92.835938 193.027344 92.878906 193.210938 92.886719 193.402344 C 92.890625 193.59375 92.855469 193.777344 92.785156 193.957031 C 92.714844 194.136719 92.609375 194.292969 92.472656 194.429688 L 88.453125 198.457031 C 86.238281 198.882812 84.003906 199.089844 81.75 199.085938 Z M 53.414062 184.621094 L 53.476562 184.621094 L 67.585938 196.140625 C 64.757812 194.878906 62.140625 193.269531 59.738281 191.316406 C 57.335938 189.363281 55.226562 187.132812 53.414062 184.621094 Z M 46.835938 164.332031 C 46.835938 163.371094 46.890625 162.425781 46.960938 161.476562 L 51.007812 172.226562 L 51.050781 172.226562 L 52.691406 182.398438 C 52.734375 182.710938 52.671875 183.007812 52.507812 183.277344 C 50.660156 180.472656 49.25 177.457031 48.285156 174.238281 C 47.320312 171.019531 46.835938 167.730469 46.835938 164.367188 Z M 106.089844 139.496094 L 105.410156 143.90625 L 105.304688 138.746094 C 105.585938 139 105.84375 139.246094 106.089844 139.496094 Z M 104.597656 146.746094 L 111.382812 158.0625 C 111.71875 158.597656 111.757812 159.152344 111.496094 159.726562 L 106.617188 171.097656 C 106.476562 171.433594 106.253906 171.699219 105.949219 171.902344 C 105.648438 172.101562 105.316406 172.207031 104.953125 172.210938 L 95.003906 172.351562 C 94.683594 172.347656 94.382812 172.269531 94.105469 172.113281 C 93.824219 171.957031 93.601562 171.742188 93.433594 171.46875 L 86.238281 160.273438 C 85.902344 159.746094 85.847656 159.1875 86.070312 158.597656 L 90.480469 147.257812 C 90.628906 146.917969 90.859375 146.648438 91.171875 146.449219 C 91.480469 146.25 91.820312 146.15625 92.191406 146.164062 L 102.984375 145.898438 C 103.3125 145.882812 103.621094 145.953125 103.910156 146.101562 C 104.199219 146.253906 104.433594 146.46875 104.609375 146.746094 Z M 63.757812 174.582031 C 63.484375 174.101562 63.347656 173.585938 63.347656 173.035156 C 63.347656 172.480469 63.484375 171.964844 63.757812 171.484375 L 69.535156 161.386719 C 69.820312 160.886719 70.214844 160.492188 70.71875 160.210938 C 71.222656 159.929688 71.761719 159.796875 72.339844 159.816406 L 83.0625 160.167969 C 83.574219 160.183594 84.054688 160.316406 84.5 160.570312 C 84.945312 160.820312 85.308594 161.160156 85.585938 161.589844 L 91.980469 171.511719 C 92.296875 172.019531 92.457031 172.570312 92.457031 173.171875 C 92.457031 173.769531 92.296875 174.320312 91.980469 174.828125 L 86.46875 183.816406 C 86.183594 184.277344 85.808594 184.640625 85.339844 184.90625 C 84.867188 185.167969 84.363281 185.304688 83.824219 185.308594 L 71.6875 185.378906 C 71.140625 185.367188 70.632812 185.21875 70.164062 184.9375 C 69.695312 184.660156 69.324219 184.28125 69.050781 183.808594 Z M 67.375 184.785156 L 61.765625 176.433594 C 61.464844 175.976562 61.082031 175.597656 60.625 175.300781 C 60.164062 175.003906 59.664062 174.8125 59.121094 174.722656 L 53.519531 173.769531 L 59.03125 174.035156 C 59.710938 174.066406 60.335938 174.257812 60.914062 174.605469 C 61.496094 174.957031 61.953125 175.425781 62.296875 176.011719 Z M 92.949219 176.636719 C 93.320312 175.972656 93.832031 175.441406 94.480469 175.039062 C 95.128906 174.640625 95.832031 174.421875 96.59375 174.386719 L 105.410156 174 L 96.539062 175.101562 C 95.894531 175.183594 95.300781 175.398438 94.746094 175.738281 C 94.195312 176.082031 93.742188 176.519531 93.382812 177.058594 L 88.195312 184.894531 Z M 88.539062 147.167969 L 86.390625 152.335938 L 87.570312 147.449219 C 87.648438 147.136719 87.625 146.832031 87.5 146.535156 C 87.378906 146.238281 87.175781 146.007812 86.898438 145.84375 L 78.964844 141.027344 C 78.734375 140.898438 78.488281 140.832031 78.222656 140.832031 C 77.957031 140.832031 77.710938 140.898438 77.480469 141.027344 L 68.664062 145.90625 C 68.425781 146.039062 68.246094 146.230469 68.132812 146.480469 C 68.015625 146.730469 67.984375 146.988281 68.035156 147.257812 L 68.867188 151.527344 L 67.289062 147.1875 C 67.167969 146.855469 67.167969 146.523438 67.285156 146.191406 C 67.402344 145.859375 67.613281 145.601562 67.914062 145.421875 L 77.5625 139.636719 C 77.796875 139.484375 78.058594 139.410156 78.335938 139.410156 C 78.617188 139.410156 78.875 139.484375 79.113281 139.636719 L 87.933594 145.359375 C 88.234375 145.550781 88.441406 145.816406 88.550781 146.160156 C 88.660156 146.5 88.648438 146.835938 88.515625 147.167969 Z M 69.050781 158.070312 C 69.304688 158.804688 69.242188 159.511719 68.855469 160.1875 L 62.878906 170.578125 C 62.628906 171.011719 62.285156 171.347656 61.84375 171.582031 C 61.402344 171.8125 60.933594 171.914062 60.433594 171.875 L 53.566406 171.355469 C 53.066406 171.316406 52.613281 171.144531 52.210938 170.84375 C 51.808594 170.542969 51.519531 170.15625 51.34375 169.6875 L 47.746094 160.097656 C 47.457031 159.355469 47.503906 158.636719 47.886719 157.9375 L 53.53125 147.707031 C 53.757812 147.304688 54.066406 146.984375 54.460938 146.746094 C 54.855469 146.507812 55.28125 146.382812 55.742188 146.367188 L 63.054688 146.214844 C 63.328125 146.210938 63.597656 146.246094 63.863281 146.328125 C 64.128906 146.40625 64.371094 146.527344 64.597656 146.683594 C 64.824219 146.84375 65.019531 147.035156 65.183594 147.253906 C 65.347656 147.476562 65.472656 147.71875 65.558594 147.980469 Z M 90.726562 197.945312 L 94.441406 194.25 L 107.015625 185.078125 C 107.503906 184.71875 108.039062 184.609375 108.628906 184.75 L 109.792969 185.023438 C 108.765625 186.398438 107.640625 187.695312 106.425781 188.90625 C 104.25 191.082031 101.828125 192.9375 99.164062 194.46875 C 96.496094 196.003906 93.675781 197.160156 90.699219 197.945312 Z M 103.832031 137.449219 L 103.832031 142.5625 C 103.832031 142.835938 103.78125 143.097656 103.679688 143.351562 C 103.578125 143.601562 103.429688 143.824219 103.242188 144.019531 C 103.050781 144.214844 102.832031 144.367188 102.585938 144.476562 C 102.335938 144.585938 102.074219 144.644531 101.804688 144.65625 L 91.671875 144.902344 C 91.25 144.914062 90.863281 144.808594 90.507812 144.582031 L 80.515625 138.296875 C 80.167969 138.078125 79.90625 137.78125 79.734375 137.410156 C 79.5625 137.035156 79.503906 136.644531 79.5625 136.238281 L 80.164062 131.828125 C 80.222656 131.394531 80.402344 131.015625 80.703125 130.691406 C 81 130.371094 81.363281 130.160156 81.792969 130.066406 L 83.789062 129.652344 C 87.449219 129.863281 90.992188 130.636719 94.410156 131.96875 C 97.832031 133.300781 100.960938 135.128906 103.804688 137.449219 Z M 77.921875 129.90625 C 78.277344 130.019531 78.554688 130.234375 78.757812 130.550781 C 78.957031 130.867188 79.03125 131.210938 78.980469 131.582031 L 78.292969 136.539062 C 78.226562 137.027344 77.980469 137.398438 77.5625 137.652344 L 65.65625 144.707031 C 65.421875 144.839844 65.171875 144.910156 64.90625 144.917969 L 56.238281 145.105469 C 56.027344 145.109375 55.824219 145.070312 55.628906 144.992188 C 55.433594 144.910156 55.261719 144.796875 55.117188 144.644531 C 54.96875 144.496094 54.855469 144.324219 54.78125 144.125 C 54.703125 143.929688 54.667969 143.726562 54.675781 143.515625 L 54.765625 142.34375 C 55.488281 141.460938 56.246094 140.632812 57.058594 139.828125 C 59.832031 137.042969 62.992188 134.789062 66.535156 133.078125 C 70.078125 131.367188 73.800781 130.289062 77.710938 129.84375 Z M 77.921875 129.90625 " fill-opacity="1" fill-rule="nonzero"/><path fill="#004aad" d="M 17.664062 209.582031 C 18.839844 207.230469 20 204.859375 21.148438 202.472656 L 20.769531 201.835938 C 20.769531 201.652344 20.722656 201.476562 20.714844 201.296875 C 20.675781 200.152344 20.734375 199.011719 20.882812 197.875 C 21.320312 195.460938 21.613281 193.03125 21.765625 190.582031 C 21.734375 187.210938 21.226562 183.910156 20.238281 180.6875 C 19.492188 177.839844 18.476562 175.09375 17.195312 172.449219 C 17.480469 175.765625 16.078125 179.503906 15.707031 184.796875 C 15.621094 186.214844 15.621094 187.628906 15.707031 189.046875 C 15.804688 190.078125 15.925781 191.171875 16.128906 192.3125 C 14.128906 187.515625 12.566406 182.582031 11.4375 177.511719 C 11.4375 177.316406 11.507812 177.113281 11.550781 176.917969 C 11.847656 175.832031 12.226562 174.773438 12.691406 173.742188 C 13.15625 172.722656 13.6875 171.714844 14.171875 170.628906 C 14.722656 169.488281 15.195312 168.3125 15.582031 167.101562 C 16.492188 163.878906 16.898438 160.597656 16.808594 157.25 C 16.820312 154.320312 16.527344 151.421875 15.925781 148.554688 C 15.425781 151.78125 13.132812 154.984375 11.375 159.921875 C 10.539062 162.253906 9.992188 164.65625 9.734375 167.121094 C 9.175781 162.066406 8.980469 156.996094 9.144531 151.914062 C 9.742188 150.742188 10.457031 149.652344 11.296875 148.640625 C 12.90625 146.84375 14.375 144.9375 15.707031 142.925781 C 17.328125 140.011719 18.445312 136.914062 19.058594 133.636719 C 19.703125 130.792969 20.015625 127.910156 19.992188 124.992188 C 18.828125 128.070312 15.953125 130.746094 13.175781 135.101562 C 11.851562 137.195312 10.78125 139.414062 9.964844 141.753906 C 10.230469 139.578125 10.550781 137.402344 10.925781 135.226562 C 10.929688 135.144531 10.929688 135.066406 10.925781 134.988281 C 11.023438 134.757812 11.128906 134.539062 11.234375 134.308594 C 12.074219 132.71875 12.808594 131.085938 13.441406 129.402344 C 14.128906 127.101562 14.4375 124.75 14.375 122.347656 C 14.300781 120.117188 13.949219 117.929688 13.324219 115.785156 C 11.609375 118.949219 10.21875 122.246094 9.144531 125.683594 C 8.582031 127.300781 8.261719 128.964844 8.191406 130.679688 C 8.121094 132.390625 8.300781 134.078125 8.730469 135.738281 C 7.796875 141.253906 7.25 146.8125 7.089844 152.40625 C 6.632812 150.441406 6.148438 148.640625 5.636719 146.972656 C 4.09375 141.753906 2.476562 137.800781 2.777344 134.097656 C 1.433594 137.160156 0.636719 140.363281 0.386719 143.703125 C -0.0351562 147.523438 0.394531 151.25 1.675781 154.878906 C 2.703125 157.261719 4.035156 159.460938 5.679688 161.476562 C 6.269531 162.269531 6.84375 163.0625 7.363281 163.917969 C 7.734375 168.8125 8.464844 173.652344 9.550781 178.4375 C 8.605469 176.671875 7.679688 174.988281 6.800781 173.460938 C 4.019531 168.679688 1.507812 165.03125 1.003906 161.226562 C 0.699219 162.730469 0.535156 164.246094 0.511719 165.777344 C 0.492188 167.683594 0.625 169.578125 0.910156 171.460938 C 1.425781 175.398438 2.785156 179.019531 4.984375 182.328125 C 6.609375 184.417969 8.492188 186.246094 10.636719 187.804688 C 11.429688 188.421875 12.179688 189.039062 12.910156 189.71875 C 14.667969 194.46875 16.808594 199.039062 19.332031 203.433594 L 18.324219 202.410156 C 17.257812 201.261719 16.128906 200.257812 15.132812 199.269531 C 11.066406 195.363281 7.636719 192.441406 6.058594 188.808594 C 6.410156 192.351562 7.355469 195.730469 8.890625 198.945312 C 10.53125 202.65625 12.90625 205.824219 16.007812 208.441406 C 16.570312 208.875 17.125 209.246094 17.664062 209.582031 Z M 17.664062 209.582031 " fill-opacity="1" fill-rule="nonzero"/><g clip-path="url(#1499c760fd)"><path fill="#004aad" d="M 58.265625 240.207031 C 58.140625 240.039062 58.019531 239.863281 57.914062 239.695312 C 57.273438 238.691406 56.738281 237.636719 56.308594 236.527344 C 55.859375 235.441406 55.425781 234.332031 54.949219 233.183594 C 54.453125 231.929688 53.863281 230.71875 53.1875 229.550781 C 50.417969 229.03125 47.664062 228.421875 44.921875 227.785156 C 46.121094 229.957031 47.535156 231.980469 49.164062 233.855469 C 46.226562 231.578125 43.363281 229.175781 40.582031 226.648438 C 34.273438 224.894531 28.101562 222.746094 22.066406 220.199219 C 22.277344 220.507812 22.496094 220.816406 22.726562 221.136719 C 23.316406 221.964844 23.953125 222.757812 24.628906 223.515625 C 27.253906 226.65625 30.417969 229.082031 34.128906 230.804688 C 35.472656 231.335938 36.851562 231.753906 38.265625 232.054688 C 39.550781 232.320312 40.785156 232.460938 41.96875 232.636719 C 42.929688 232.789062 43.882812 232.957031 44.84375 233.15625 C 48.566406 236.253906 52.460938 239.171875 56.484375 241.898438 C 54.878906 241.378906 53.355469 240.9375 51.90625 240.539062 C 46.332031 239.007812 41.835938 238.230469 38.574219 235.855469 C 38.953125 236.394531 39.402344 236.984375 39.921875 237.621094 C 40.441406 238.257812 41.050781 238.847656 41.6875 239.492188 C 43.101562 240.878906 44.613281 242.144531 46.226562 243.292969 C 47.929688 244.503906 49.722656 245.566406 51.597656 246.484375 C 53.367188 247.320312 55.207031 247.941406 57.121094 248.347656 C 59.808594 248.777344 62.511719 248.867188 65.222656 248.621094 C 65.875 248.621094 66.519531 248.574219 67.171875 248.574219 C 70.789062 250.621094 74.464844 252.519531 78.203125 254.265625 C 87.84375 258.664062 97.726562 262.425781 107.855469 265.546875 L 113.144531 264.339844 C 100.148438 260.527344 87.546875 255.6875 75.339844 249.820312 C 69.460938 246.949219 63.769531 243.742188 58.265625 240.207031 Z M 58.265625 240.207031 " fill-opacity="1" fill-rule="nonzero"/></g><path fill="#004aad" d="M 57.25 110.554688 L 52.796875 113.652344 L 54.367188 108.464844 L 50.054688 105.191406 L 55.46875 105.078125 L 57.25 99.960938 L 59.023438 105.078125 L 64.449219 105.191406 L 60.125 108.464844 L 61.695312 113.652344 Z M 57.25 110.554688 " fill-opacity="1" fill-rule="nonzero"/><path fill="#004aad" d="M 106.25 110.554688 L 101.796875 113.652344 L 103.363281 108.464844 L 99.050781 105.191406 L 104.46875 105.078125 L 106.25 99.960938 L 108.019531 105.078125 L 113.445312 105.191406 L 109.125 108.464844 L 110.691406 113.652344 Z M 106.25 110.554688 " fill-opacity="1" fill-rule="nonzero"/><g clip-path="url(#e4fac2a8b3)"><path fill="#004aad" d="M 81.75 103.417969 L 75.25 107.933594 L 77.542969 100.359375 L 71.238281 95.585938 L 79.148438 95.417969 L 81.75 87.949219 L 84.34375 95.417969 L 92.253906 95.585938 L 85.949219 100.359375 L 88.242188 107.933594 Z M 81.75 103.417969 " fill-opacity="1" fill-rule="nonzero"/></g><path fill="#0097b2" d="M 14.226562 216.59375 C 16.746094 211.460938 19.261719 206.328125 21.773438 201.191406 L 1.394531 204.96875 L 10.847656 215.492188 L 4.921875 230.785156 L 23.238281 226.65625 L 22.992188 220.535156 C 20.046875 219.320312 17.125 218.003906 14.226562 216.59375 Z M 14.226562 216.59375 " fill-opacity="1" fill-rule="nonzero"/><path fill="#5ce1e6" d="M 14.226562 216.59375 L 23.238281 226.65625 L 26.066406 221.78125 C 22.078125 220.222656 18.128906 218.492188 14.226562 216.59375 Z M 14.226562 216.59375 " fill-opacity="1" fill-rule="nonzero"/><path fill="#0097b2" d="M 162.089844 204.96875 L 141.804688 201.203125 L 149.300781 216.59375 C 146.363281 218.015625 143.421875 219.34375 140.484375 220.570312 L 140.234375 226.65625 L 158.550781 230.785156 L 152.636719 215.492188 Z M 162.089844 204.96875 " fill-opacity="1" fill-rule="nonzero"/><path fill="#5ce1e6" d="M 137.433594 221.804688 L 140.246094 226.65625 L 149.195312 216.65625 C 145.332031 218.542969 141.363281 220.253906 137.433594 221.804688 Z M 137.433594 221.804688 " fill-opacity="1" fill-rule="nonzero"/><path fill="#0cc0df" d="M 138.632812 194.746094 C 134.222656 196.90625 129.703125 198.808594 125.074219 200.453125 C 120.449219 202.097656 115.742188 203.476562 110.960938 204.585938 C 106.175781 205.695312 101.34375 206.527344 96.464844 207.085938 C 91.585938 207.644531 86.691406 207.921875 81.78125 207.921875 C 76.871094 207.921875 71.976562 207.644531 67.097656 207.085938 C 62.21875 206.527344 57.386719 205.695312 52.601562 204.585938 C 47.820312 203.476562 43.113281 202.097656 38.484375 200.453125 C 33.859375 198.808594 29.339844 196.90625 24.929688 194.746094 C 21.363281 202.023438 17.792969 209.308594 14.226562 216.59375 C 19.464844 219.160156 24.835938 221.421875 30.332031 223.375 C 35.832031 225.332031 41.421875 226.96875 47.109375 228.285156 C 52.792969 229.601562 58.535156 230.59375 64.332031 231.257812 C 70.128906 231.917969 75.945312 232.25 81.78125 232.25 C 87.617188 232.25 93.433594 231.917969 99.230469 231.257812 C 105.027344 230.59375 110.769531 229.601562 116.453125 228.285156 C 122.140625 226.96875 127.730469 225.332031 133.230469 223.375 C 138.726562 221.421875 144.097656 219.160156 149.335938 216.59375 C 145.785156 209.308594 142.21875 202.023438 138.632812 194.746094 Z M 138.632812 194.746094 " fill-opacity="1" fill-rule="nonzero"/><g fill="#1a3c61" fill-opacity="1"><g transform="translate(169.814232, 183.360134)"><g><path d="M 14.875 -22.859375 L 14.875 -18.28125 L 6.875 -18.28125 L 6.875 -13.734375 L 14.265625 -13.734375 L 14.265625 -9.171875 L 6.875 -9.171875 L 6.875 0 L 1.65625 0 L 1.65625 -22.859375 Z M 14.875 -22.859375 "/></g></g></g><g fill="#1a3c61" fill-opacity="1"><g transform="translate(185.521887, 183.360134)"><g><path d="M 3 -1.6875 C 1.425781 -3.09375 0.640625 -4.894531 0.640625 -7.09375 C 0.640625 -9.289062 1.457031 -11.09375 3.09375 -12.5 C 4.738281 -13.914062 6.773438 -14.625 9.203125 -14.625 C 11.578125 -14.625 13.582031 -13.910156 15.21875 -12.484375 C 16.851562 -11.066406 17.671875 -9.269531 17.671875 -7.09375 C 17.671875 -4.914062 16.867188 -3.117188 15.265625 -1.703125 C 13.671875 -0.285156 11.648438 0.421875 9.203125 0.421875 C 6.648438 0.421875 4.582031 -0.28125 3 -1.6875 Z M 6.796875 -9.5 C 6.160156 -8.875 5.84375 -8.070312 5.84375 -7.09375 C 5.84375 -6.113281 6.144531 -5.3125 6.75 -4.6875 C 7.363281 -4.070312 8.171875 -3.765625 9.171875 -3.765625 C 10.128906 -3.765625 10.914062 -4.078125 11.53125 -4.703125 C 12.15625 -5.335938 12.46875 -6.132812 12.46875 -7.09375 C 12.46875 -8.070312 12.148438 -8.875 11.515625 -9.5 C 10.878906 -10.125 10.097656 -10.4375 9.171875 -10.4375 C 8.222656 -10.4375 7.429688 -10.125 6.796875 -9.5 Z M 6.796875 -9.5 "/></g></g></g><g fill="#1a3c61" fill-opacity="1"><g transform="translate(203.833635, 183.360134)"><g><path d="M 3 -1.6875 C 1.425781 -3.09375 0.640625 -4.894531 0.640625 -7.09375 C 0.640625 -9.289062 1.457031 -11.09375 3.09375 -12.5 C 4.738281 -13.914062 6.773438 -14.625 9.203125 -14.625 C 11.578125 -14.625 13.582031 -13.910156 15.21875 -12.484375 C 16.851562 -11.066406 17.671875 -9.269531 17.671875 -7.09375 C 17.671875 -4.914062 16.867188 -3.117188 15.265625 -1.703125 C 13.671875 -0.285156 11.648438 0.421875 9.203125 0.421875 C 6.648438 0.421875 4.582031 -0.28125 3 -1.6875 Z M 6.796875 -9.5 C 6.160156 -8.875 5.84375 -8.070312 5.84375 -7.09375 C 5.84375 -6.113281 6.144531 -5.3125 6.75 -4.6875 C 7.363281 -4.070312 8.171875 -3.765625 9.171875 -3.765625 C 10.128906 -3.765625 10.914062 -4.078125 11.53125 -4.703125 C 12.15625 -5.335938 12.46875 -6.132812 12.46875 -7.09375 C 12.46875 -8.070312 12.148438 -8.875 11.515625 -9.5 C 10.878906 -10.125 10.097656 -10.4375 9.171875 -10.4375 C 8.222656 -10.4375 7.429688 -10.125 6.796875 -9.5 Z M 6.796875 -9.5 "/></g></g></g><g fill="#1a3c61" fill-opacity="1"><g transform="translate(222.145383, 183.360134)"><g><path d="M 2.5 -14.21875 L 2.5 -19.5 L 7.390625 -19.5 L 7.390625 -14.21875 L 10.390625 -14.21875 L 10.390625 -10.46875 L 7.390625 -10.46875 L 7.390625 -5.953125 C 7.390625 -4.640625 7.757812 -3.984375 8.5 -3.984375 C 8.6875 -3.984375 8.878906 -4.019531 9.078125 -4.09375 C 9.285156 -4.164062 9.445312 -4.242188 9.5625 -4.328125 L 9.71875 -4.4375 L 10.9375 -0.46875 C 9.882812 0.125 8.6875 0.421875 7.34375 0.421875 C 6.414062 0.421875 5.617188 0.257812 4.953125 -0.0625 C 4.296875 -0.382812 3.796875 -0.816406 3.453125 -1.359375 C 3.109375 -1.910156 2.863281 -2.484375 2.71875 -3.078125 C 2.570312 -3.679688 2.5 -4.328125 2.5 -5.015625 L 2.5 -10.46875 L 0.4375 -10.46875 L 0.4375 -14.21875 Z M 2.5 -14.21875 "/></g></g></g><g fill="#1a3c61" fill-opacity="1"><g transform="translate(233.088108, 183.360134)"><g><path d="M 16.28125 -12.4375 C 17.613281 -10.976562 18.28125 -9.195312 18.28125 -7.09375 C 18.28125 -4.988281 17.613281 -3.207031 16.28125 -1.75 C 14.957031 -0.300781 13.269531 0.421875 11.21875 0.421875 C 9.332031 0.421875 7.78125 -0.253906 6.5625 -1.609375 L 6.515625 -1.609375 L 6.515625 0 L 1.65625 0 L 1.65625 -23.828125 L 6.5625 -23.828125 L 6.5625 -12.859375 C 7.78125 -14.035156 9.332031 -14.625 11.21875 -14.625 C 13.269531 -14.625 14.957031 -13.894531 16.28125 -12.4375 Z M 12.15625 -4.6875 C 12.769531 -5.3125 13.078125 -6.113281 13.078125 -7.09375 C 13.078125 -8.070312 12.757812 -8.875 12.125 -9.5 C 11.488281 -10.125 10.695312 -10.4375 9.75 -10.4375 C 8.820312 -10.4375 8.039062 -10.125 7.40625 -9.5 C 6.769531 -8.875 6.453125 -8.070312 6.453125 -7.09375 C 6.453125 -6.132812 6.757812 -5.335938 7.375 -4.703125 C 8 -4.078125 8.789062 -3.765625 9.75 -3.765625 C 10.75 -3.765625 11.550781 -4.070312 12.15625 -4.6875 Z M 12.15625 -4.6875 "/></g></g></g><g fill="#1a3c61" fill-opacity="1"><g transform="translate(252.009333, 183.360134)"><g><path d="M 2.625 -1.75 C 1.300781 -3.207031 0.640625 -4.988281 0.640625 -7.09375 C 0.640625 -9.195312 1.300781 -10.976562 2.625 -12.4375 C 3.957031 -13.894531 5.648438 -14.625 7.703125 -14.625 C 9.585938 -14.625 11.140625 -14.035156 12.359375 -12.859375 L 12.359375 -14.21875 L 17.265625 -14.21875 L 17.265625 0 L 12.40625 0 L 12.40625 -1.609375 L 12.359375 -1.609375 C 11.140625 -0.253906 9.585938 0.421875 7.703125 0.421875 C 5.648438 0.421875 3.957031 -0.300781 2.625 -1.75 Z M 6.796875 -9.5 C 6.160156 -8.875 5.84375 -8.070312 5.84375 -7.09375 C 5.84375 -6.113281 6.144531 -5.3125 6.75 -4.6875 C 7.363281 -4.070312 8.171875 -3.765625 9.171875 -3.765625 C 10.128906 -3.765625 10.914062 -4.078125 11.53125 -4.703125 C 12.15625 -5.335938 12.46875 -6.132812 12.46875 -7.09375 C 12.46875 -8.070312 12.148438 -8.875 11.515625 -9.5 C 10.878906 -10.125 10.097656 -10.4375 9.171875 -10.4375 C 8.222656 -10.4375 7.429688 -10.125 6.796875 -9.5 Z M 6.796875 -9.5 "/></g></g></g><g fill="#1a3c61" fill-opacity="1"><g transform="translate(270.930558, 183.360134)"><g><path d="M 1.65625 0 L 1.65625 -23.828125 L 6.5625 -23.828125 L 6.5625 0 Z M 1.65625 0 "/></g></g></g><g fill="#1a3c61" fill-opacity="1"><g transform="translate(279.158379, 183.360134)"><g><path d="M 1.65625 0 L 1.65625 -23.828125 L 6.5625 -23.828125 L 6.5625 0 Z M 1.65625 0 "/></g></g></g><g fill="#1a3c61" fill-opacity="1"><g transform="translate(287.3862, 183.360134)"><g/></g></g><g fill="#1a3c61" fill-opacity="1"><g transform="translate(294.949142, 183.360134)"><g><path d="M 10.078125 -23.265625 C 11.316406 -23.265625 12.523438 -23.082031 13.703125 -22.71875 C 14.890625 -22.363281 15.769531 -22.007812 16.34375 -21.65625 L 17.171875 -21.109375 L 15.078125 -16.953125 C 14.910156 -17.066406 14.675781 -17.207031 14.375 -17.375 C 14.082031 -17.550781 13.53125 -17.785156 12.71875 -18.078125 C 11.90625 -18.378906 11.144531 -18.53125 10.4375 -18.53125 C 9.570312 -18.53125 8.90625 -18.34375 8.4375 -17.96875 C 7.96875 -17.601562 7.734375 -17.109375 7.734375 -16.484375 C 7.734375 -16.171875 7.84375 -15.878906 8.0625 -15.609375 C 8.28125 -15.335938 8.65625 -15.050781 9.1875 -14.75 C 9.726562 -14.445312 10.203125 -14.203125 10.609375 -14.015625 C 11.015625 -13.828125 11.644531 -13.550781 12.5 -13.1875 C 13.96875 -12.5625 15.222656 -11.707031 16.265625 -10.625 C 17.316406 -9.539062 17.84375 -8.316406 17.84375 -6.953125 C 17.84375 -5.640625 17.601562 -4.492188 17.125 -3.515625 C 16.65625 -2.535156 16.007812 -1.769531 15.1875 -1.21875 C 14.375 -0.664062 13.46875 -0.253906 12.46875 0.015625 C 11.46875 0.285156 10.382812 0.421875 9.21875 0.421875 C 8.226562 0.421875 7.25 0.316406 6.28125 0.109375 C 5.320312 -0.0859375 4.519531 -0.335938 3.875 -0.640625 C 3.226562 -0.953125 2.644531 -1.253906 2.125 -1.546875 C 1.613281 -1.847656 1.238281 -2.097656 1 -2.296875 L 0.640625 -2.609375 L 3.234375 -6.984375 C 3.460938 -6.796875 3.769531 -6.554688 4.15625 -6.265625 C 4.539062 -5.984375 5.226562 -5.601562 6.21875 -5.125 C 7.207031 -4.644531 8.082031 -4.40625 8.84375 -4.40625 C 11.039062 -4.40625 12.140625 -5.15625 12.140625 -6.65625 C 12.140625 -6.96875 12.054688 -7.253906 11.890625 -7.515625 C 11.734375 -7.785156 11.457031 -8.050781 11.0625 -8.3125 C 10.664062 -8.582031 10.316406 -8.796875 10.015625 -8.953125 C 9.710938 -9.117188 9.210938 -9.363281 8.515625 -9.6875 C 7.828125 -10.007812 7.316406 -10.253906 6.984375 -10.421875 C 5.597656 -11.097656 4.523438 -11.945312 3.765625 -12.96875 C 3.003906 -14 2.625 -15.109375 2.625 -16.296875 C 2.625 -18.335938 3.378906 -20.007812 4.890625 -21.3125 C 6.410156 -22.613281 8.140625 -23.265625 10.078125 -23.265625 Z M 10.078125 -23.265625 "/></g></g></g><g fill="#1a3c61" fill-opacity="1"><g transform="translate(313.565634, 183.360134)"><g><path d="M 1.65625 0 L 1.65625 -23.828125 L 6.5625 -23.828125 L 6.5625 -12.71875 L 6.625 -12.71875 C 7.894531 -13.988281 9.25 -14.625 10.6875 -14.625 C 11.394531 -14.625 12.09375 -14.53125 12.78125 -14.34375 C 13.476562 -14.164062 14.144531 -13.878906 14.78125 -13.484375 C 15.414062 -13.097656 15.929688 -12.550781 16.328125 -11.84375 C 16.722656 -11.132812 16.921875 -10.304688 16.921875 -9.359375 L 16.921875 0 L 12.015625 0 L 12.015625 -8.03125 C 12.015625 -8.769531 11.78125 -9.414062 11.3125 -9.96875 C 10.84375 -10.519531 10.226562 -10.796875 9.46875 -10.796875 C 8.726562 -10.796875 8.054688 -10.507812 7.453125 -9.9375 C 6.859375 -9.375 6.5625 -8.738281 6.5625 -8.03125 L 6.5625 0 Z M 1.65625 0 "/></g></g></g><g fill="#1a3c61" fill-opacity="1"><g transform="translate(331.877382, 183.360134)"><g><path d="M 3 -1.6875 C 1.425781 -3.09375 0.640625 -4.894531 0.640625 -7.09375 C 0.640625 -9.289062 1.457031 -11.09375 3.09375 -12.5 C 4.738281 -13.914062 6.773438 -14.625 9.203125 -14.625 C 11.578125 -14.625 13.582031 -13.910156 15.21875 -12.484375 C 16.851562 -11.066406 17.671875 -9.269531 17.671875 -7.09375 C 17.671875 -4.914062 16.867188 -3.117188 15.265625 -1.703125 C 13.671875 -0.285156 11.648438 0.421875 9.203125 0.421875 C 6.648438 0.421875 4.582031 -0.28125 3 -1.6875 Z M 6.796875 -9.5 C 6.160156 -8.875 5.84375 -8.070312 5.84375 -7.09375 C 5.84375 -6.113281 6.144531 -5.3125 6.75 -4.6875 C 7.363281 -4.070312 8.171875 -3.765625 9.171875 -3.765625 C 10.128906 -3.765625 10.914062 -4.078125 11.53125 -4.703125 C 12.15625 -5.335938 12.46875 -6.132812 12.46875 -7.09375 C 12.46875 -8.070312 12.148438 -8.875 11.515625 -9.5 C 10.878906 -10.125 10.097656 -10.4375 9.171875 -10.4375 C 8.222656 -10.4375 7.429688 -10.125 6.796875 -9.5 Z M 6.796875 -9.5 "/></g></g></g><g fill="#1a3c61" fill-opacity="1"><g transform="translate(350.189129, 183.360134)"><g><path d="M 16.28125 -12.453125 C 17.613281 -11.003906 18.28125 -9.226562 18.28125 -7.125 C 18.28125 -5.019531 17.613281 -3.234375 16.28125 -1.765625 C 14.957031 -0.304688 13.269531 0.421875 11.21875 0.421875 C 9.332031 0.421875 7.78125 -0.171875 6.5625 -1.359375 L 6.5625 7.203125 L 1.65625 7.203125 L 1.65625 -14.21875 L 6.515625 -14.21875 L 6.515625 -12.609375 L 6.5625 -12.609375 C 7.78125 -13.953125 9.332031 -14.625 11.21875 -14.625 C 13.269531 -14.625 14.957031 -13.898438 16.28125 -12.453125 Z M 12.125 -4.703125 C 12.757812 -5.335938 13.078125 -6.144531 13.078125 -7.125 C 13.078125 -8.101562 12.769531 -8.898438 12.15625 -9.515625 C 11.550781 -10.128906 10.75 -10.4375 9.75 -10.4375 C 8.789062 -10.4375 8 -10.125 7.375 -9.5 C 6.757812 -8.875 6.453125 -8.082031 6.453125 -7.125 C 6.453125 -6.144531 6.769531 -5.335938 7.40625 -4.703125 C 8.039062 -4.078125 8.820312 -3.765625 9.75 -3.765625 C 10.695312 -3.765625 11.488281 -4.078125 12.125 -4.703125 Z M 12.125 -4.703125 "/></g></g></g></svg>