<svg xmlns="http://www.w3.org/2000/svg" xmlns:xlink="http://www.w3.org/1999/xlink" width="500" zoomAndPan="magnify" viewBox="0 0 375 374.999991" height="500" preserveAspectRatio="xMidYMid meet" version="1.0"><defs><g/><clipPath id="7be7957e04"><path d="M 83.8125 93.542969 L 291.5625 93.542969 L 291.5625 209 L 83.8125 209 Z M 83.8125 93.542969 " clip-rule="nonzero"/></clipPath><clipPath id="17dd6f74e3"><path d="M 138.023438 57.78125 L 236.976562 57.78125 L 236.976562 156.734375 L 138.023438 156.734375 Z M 138.023438 57.78125 " clip-rule="nonzero"/></clipPath><clipPath id="3addbe8fb4"><path d="M 187.5 57.78125 C 160.175781 57.78125 138.023438 79.933594 138.023438 107.257812 C 138.023438 134.582031 160.175781 156.734375 187.5 156.734375 C 214.824219 156.734375 236.976562 134.582031 236.976562 107.257812 C 236.976562 79.933594 214.824219 57.78125 187.5 57.78125 " clip-rule="nonzero"/></clipPath><clipPath id="e363929774"><path d="M 247 218 L 291.5625 218 L 291.5625 262.960938 L 247 262.960938 Z M 247 218 " clip-rule="nonzero"/></clipPath><clipPath id="9fbecd7fa9"><path d="M 83.8125 218 L 128 218 L 128 262.960938 L 83.8125 262.960938 Z M 83.8125 218 " clip-rule="nonzero"/></clipPath><clipPath id="69b51c560c"><path d="M 100 199.210938 L 275 199.210938 L 275 247 L 100 247 Z M 100 199.210938 " clip-rule="nonzero"/></clipPath></defs><g clip-path="url(#7be7957e04)"><path fill="#000000" d="M 106.183594 178.980469 C 103.367188 169.613281 101.203125 159.84375 99.742188 149.902344 C 106.617188 148.886719 114.5625 146.703125 123.40625 143.40625 C 133.035156 139.8125 143.882812 134.855469 155.652344 128.671875 C 169.679688 121.304688 181.835938 113.835938 187.65625 110.15625 C 187.667969 110.164062 187.675781 110.171875 187.6875 110.175781 C 187.695312 110.171875 187.707031 110.164062 187.71875 110.15625 C 193.539062 113.835938 205.691406 121.304688 219.71875 128.671875 C 231.488281 134.855469 242.339844 139.8125 251.964844 143.40625 C 260.808594 146.703125 268.753906 148.886719 275.628906 149.902344 C 274.167969 159.84375 272.003906 169.613281 269.191406 178.980469 C 266.15625 189.074219 262.289062 198.957031 257.6875 208.382812 C 284.078125 179.8125 291.5625 137.050781 291.5625 137.050781 L 283.707031 136.960938 C 271.253906 136.816406 251.535156 129.839844 226.675781 116.789062 C 207.429688 106.679688 191.941406 96.464844 191.789062 96.363281 L 187.71875 93.667969 L 187.6875 93.6875 L 187.65625 93.667969 L 183.582031 96.363281 C 183.429688 96.464844 167.941406 106.679688 148.695312 116.789062 C 123.839844 129.839844 104.117188 136.816406 91.664062 136.960938 L 83.8125 137.050781 C 83.8125 137.050781 91.296875 179.8125 117.683594 208.382812 C 113.085938 198.957031 109.21875 189.074219 106.183594 178.980469 " fill-opacity="1" fill-rule="nonzero"/></g><path fill="#000000" d="M 187.71875 288.105469 C 187.707031 288.097656 187.695312 288.089844 187.6875 288.085938 C 187.675781 288.089844 187.667969 288.097656 187.65625 288.105469 C 142.640625 259.289062 104.222656 201.449219 96.867188 190.375 C 99.378906 197.539062 102.238281 204.558594 105.410156 211.359375 C 114.148438 230.101562 125.40625 247.570312 138.875 263.277344 C 150.867188 277.257812 162.441406 287.242188 170.039062 293.15625 C 178.398438 299.664062 183.929688 302.835938 184.164062 302.96875 L 187.65625 304.960938 L 187.6875 304.941406 L 187.71875 304.960938 L 191.210938 302.96875 C 191.441406 302.835938 196.972656 299.664062 205.335938 293.15625 C 212.933594 287.242188 224.503906 277.257812 236.496094 263.277344 C 249.964844 247.570312 261.226562 230.101562 269.964844 211.359375 C 273.136719 204.558594 275.992188 197.539062 278.507812 190.375 C 271.148438 201.449219 232.730469 259.289062 187.71875 288.105469 " fill-opacity="1" fill-rule="nonzero"/><g clip-path="url(#17dd6f74e3)"><g clip-path="url(#3addbe8fb4)"><path fill="#000000" d="M 138.023438 57.78125 L 236.976562 57.78125 L 236.976562 156.734375 L 138.023438 156.734375 Z M 138.023438 57.78125 " fill-opacity="1" fill-rule="nonzero"/></g></g><path fill="#ffffff" d="M 229.976562 94.535156 C 237.007812 117.988281 223.691406 142.703125 200.242188 149.730469 C 176.789062 156.765625 152.074219 143.453125 145.042969 120 C 138.011719 96.546875 151.324219 71.832031 174.777344 64.800781 C 198.226562 57.769531 222.945312 71.082031 229.976562 94.535156 Z M 229.976562 94.535156 " fill-opacity="1" fill-rule="evenodd"/><path fill="#000000" d="M 228.636719 94.9375 C 221.828125 72.222656 197.886719 59.332031 175.179688 66.140625 C 152.46875 72.949219 139.570312 96.886719 146.378906 119.597656 C 153.191406 142.308594 177.128906 155.203125 199.839844 148.394531 C 222.546875 141.585938 235.445312 117.648438 228.636719 94.9375 Z M 229.976562 94.535156 C 222.945312 71.085938 198.226562 57.773438 174.777344 64.800781 C 151.324219 71.832031 138.011719 96.550781 145.042969 120 C 152.074219 143.449219 176.792969 156.765625 200.238281 149.734375 C 223.691406 142.703125 237.007812 117.984375 229.976562 94.535156 Z M 229.976562 94.535156 " fill-opacity="1" fill-rule="evenodd"/><path fill="#000000" d="M 202.332031 66.015625 C 198.972656 66.417969 192.785156 67.171875 189.246094 68.796875 C 184.558594 67.4375 180.585938 67.429688 176.71875 67.609375 C 176.460938 67.046875 174.957031 66.320312 174.695312 65.757812 C 184.960938 63.714844 195.757812 63.878906 202.332031 66.015625 Z M 202.332031 66.015625 " fill-opacity="1" fill-rule="evenodd"/><path fill="#000000" d="M 217.117188 75.425781 C 218.710938 80.109375 220.351562 85.574219 220.988281 89.46875 C 224.621094 95.035156 227.148438 100.199219 229.179688 105.179688 C 229.539062 104.546875 230.515625 103.726562 230.878906 103.09375 C 230.445312 94.3125 226.210938 84.722656 217.117188 75.425781 Z M 217.117188 75.425781 " fill-opacity="1" fill-rule="evenodd"/><path fill="#000000" d="M 221.207031 123.199219 C 222.277344 125.984375 222.988281 128.386719 223.539062 130.617188 C 218.191406 138.878906 211.355469 144.238281 203.289062 147.199219 C 201.535156 145.546875 199.75 143.789062 197.894531 141.808594 C 201.546875 137.785156 204.921875 132.832031 207.890625 126.523438 C 212.480469 126.507812 216.882812 125.273438 221.207031 123.199219 Z M 221.207031 123.199219 " fill-opacity="1" fill-rule="evenodd"/><path fill="#000000" d="M 207.480469 91.246094 C 206.328125 99.488281 204.382812 106.011719 202.21875 112.0625 C 194.503906 111.578125 186.789062 111.332031 179.039062 111.929688 C 176.589844 105.207031 174.3125 98.277344 172.644531 90.605469 C 177.867188 85.882812 183.480469 81.519531 190.171875 78.136719 C 195.882812 81.902344 201.558594 85.558594 207.480469 91.246094 Z M 207.480469 91.246094 " fill-opacity="1" fill-rule="evenodd"/><path fill="#000000" d="M 156.847656 81.183594 C 156.964844 84.84375 157.394531 87.917969 157.96875 90.730469 C 154.390625 96.035156 151.660156 101.792969 149.777344 108.015625 C 148.058594 106.992188 145.777344 104.582031 144.222656 101.730469 C 144.851562 94.230469 147.785156 87.839844 151.898438 82.398438 C 153.488281 81.792969 155.261719 81.792969 156.847656 81.183594 Z M 156.847656 81.183594 " fill-opacity="1" fill-rule="evenodd"/><path fill="#000000" d="M 154.089844 125.957031 C 153.3125 128.039062 152.953125 130.859375 153.03125 133.398438 C 159.179688 140.347656 164.980469 145.058594 170.808594 147.308594 C 174.015625 146.351562 177.242188 144.34375 180.054688 142.082031 C 176.472656 138.167969 173.332031 133.945312 170.640625 129.410156 C 165.003906 128.941406 159.460938 127.929688 154.089844 125.957031 Z M 154.089844 125.957031 " fill-opacity="1" fill-rule="evenodd"/><path fill="#000000" d="M 189.53125 66.609375 C 190.460938 69.058594 191.023438 71.5 191.3125 73.929688 C 191.605469 76.34375 191.625 78.753906 191.488281 81.15625 L 189.570312 81.046875 C 189.703125 78.757812 189.675781 76.460938 189.40625 74.164062 C 189.128906 71.878906 188.605469 69.585938 187.734375 67.292969 Z M 189.53125 66.609375 " fill-opacity="1" fill-rule="nonzero"/><path fill="#000000" d="M 155.046875 90.347656 C 158.570312 89.792969 162.234375 89.363281 165.996094 89.222656 C 169.777344 89.082031 173.640625 89.234375 177.527344 89.835938 L 177.234375 91.742188 C 173.457031 91.152344 169.714844 91.003906 166.066406 91.144531 C 162.398438 91.277344 158.808594 91.699219 155.347656 92.246094 Z M 155.046875 90.347656 " fill-opacity="1" fill-rule="nonzero"/><path fill="#000000" d="M 154.777344 82.140625 C 159.355469 75.054688 167.789062 69.386719 177.226562 65.394531 L 178.042969 67.136719 C 168.464844 70.675781 160.871094 76.035156 156.085938 83.546875 Z M 154.777344 82.140625 " fill-opacity="1" fill-rule="nonzero"/><path fill="#000000" d="M 203.292969 90.832031 C 206.933594 90.0625 210.476562 89.539062 213.917969 89.269531 C 217.359375 89.003906 220.703125 88.992188 223.960938 89.246094 L 223.8125 91.160156 C 220.675781 90.917969 217.429688 90.925781 214.070312 91.1875 C 210.714844 91.449219 207.257812 91.960938 203.691406 92.71875 Z M 203.292969 90.832031 " fill-opacity="1" fill-rule="nonzero"/><path fill="#000000" d="M 229.976562 102.5 C 229.570312 107.503906 228.53125 111.914062 226.910156 115.777344 C 225.28125 119.664062 223.070312 122.988281 220.332031 125.804688 L 218.957031 124.464844 C 221.53125 121.820312 223.609375 118.691406 225.140625 115.039062 C 226.679688 111.363281 227.671875 107.148438 228.0625 102.34375 Z M 229.976562 102.5 " fill-opacity="1" fill-rule="nonzero"/><path fill="#000000" d="M 208.015625 128.492188 C 206.984375 125.066406 205.597656 121.699219 204.015625 118.429688 C 202.433594 115.160156 200.648438 111.972656 198.828125 108.910156 L 200.480469 107.929688 C 202.316406 111.011719 204.121094 114.238281 205.746094 117.59375 C 207.363281 120.945312 208.789062 124.402344 209.851562 127.9375 Z M 208.015625 128.492188 " fill-opacity="1" fill-rule="nonzero"/><path fill="#000000" d="M 181.503906 109.566406 C 179.238281 112.898438 177.164062 116.386719 175.324219 120.074219 C 173.488281 123.757812 171.882812 127.636719 170.558594 131.738281 L 168.730469 131.148438 C 170.085938 126.945312 171.726562 122.980469 173.605469 119.214844 C 175.480469 115.457031 177.601562 111.890625 179.914062 108.484375 Z M 181.503906 109.566406 " fill-opacity="1" fill-rule="nonzero"/><path fill="#000000" d="M 176.691406 140.582031 C 180.148438 141.125 183.847656 141.46875 187.839844 141.457031 C 191.832031 141.445312 196.113281 141.085938 200.734375 140.226562 L 201.09375 142.117188 C 196.339844 143 191.945312 143.367188 187.851562 143.378906 C 183.757812 143.386719 179.957031 143.039062 176.398438 142.476562 Z M 176.691406 140.582031 " fill-opacity="1" fill-rule="nonzero"/><path fill="#000000" d="M 149.433594 104.027344 C 149.898438 108.425781 150.679688 112.777344 151.757812 117.078125 C 152.835938 121.378906 154.214844 125.648438 155.863281 129.886719 L 154.070312 130.582031 C 152.402344 126.292969 151 121.953125 149.898438 117.554688 C 148.796875 113.15625 147.996094 108.714844 147.523438 104.230469 Z M 149.433594 104.027344 " fill-opacity="1" fill-rule="nonzero"/><g fill="#000000" fill-opacity="1"><g transform="translate(129.247762, 198.622677)"><g><path d="M 1.953125 -1.410156 C 5.402344 -1.171875 8.6875 -1.242188 12.660156 -2.03125 C 19.527344 -3.398438 22.4375 -6.601562 21.105469 -13.28125 C 20.046875 -18.605469 16.929688 -20.121094 11.734375 -20.59375 L 7.515625 -21.066406 C 4.703125 -21.285156 2.863281 -21.988281 2.296875 -24.835938 C 1.582031 -28.433594 3.152344 -29.816406 6.933594 -30.566406 C 9.128906 -31.003906 12.417969 -31.320312 15.578125 -31.316406 L 15.160156 -34.875 C 11.117188 -35.1875 8.5 -34.910156 5.277344 -34.269531 C -0.9375 -33.03125 -3.332031 -29.691406 -2.226562 -24.132812 C -1.277344 -19.367188 1.96875 -16.953125 6.96875 -16.734375 L 10.742188 -16.316406 C 14.542969 -16.003906 16.007812 -15.472656 16.6875 -12.0625 C 17.496094 -7.996094 15.578125 -6.644531 11.75 -5.882812 C 8.476562 -5.230469 4.253906 -4.976562 1.527344 -5.015625 Z M 1.953125 -1.410156 "/></g></g></g><g fill="#000000" fill-opacity="1"><g transform="translate(152.764735, 193.610526)"><g><path d="M 22.234375 -33.875 L 23.453125 -17.722656 L 7.78125 -16.542969 L 6.5625 -32.691406 L 2 -32.347656 L 4.417969 -0.332031 L 8.976562 -0.675781 L 8.082031 -12.550781 L 23.753906 -13.734375 L 24.652344 -1.859375 L 29.164062 -2.199219 L 26.75 -34.214844 Z M 22.234375 -33.875 "/></g></g></g><g fill="#000000" fill-opacity="1"><g transform="translate(185.036127, 191.121268)"><g><path d="M 3.800781 -12.988281 C 3.246094 -3.90625 4.816406 0.820312 16.226562 1.515625 C 27.6875 2.214844 29.824219 -2.28125 30.378906 -11.363281 L 30.730469 -17.117188 C 31.171875 -24.390625 30.847656 -30.757812 18.246094 -31.527344 C 5.695312 -32.292969 4.597656 -26.0625 4.152344 -18.738281 Z M 8.351562 -12.519531 L 8.730469 -18.699219 C 9.0625 -24.117188 9.585938 -28.046875 18.003906 -27.535156 C 26.417969 -27.019531 26.507812 -23.003906 26.179688 -17.632812 L 25.800781 -11.453125 C 25.40625 -4.984375 24.320312 -2.046875 16.476562 -2.523438 C 8.582031 -3.007812 7.957031 -6.050781 8.351562 -12.519531 Z M 8.351562 -12.519531 "/></g></g></g><g fill="#000000" fill-opacity="1"><g transform="translate(216.37213, 193.065668)"><g><path d="M 23.644531 -28.179688 L 10.355469 -30.710938 L 4.351562 0.828125 L 8.796875 1.675781 L 10.3125 -6.28125 L 19.15625 -4.597656 C 25.800781 -3.332031 28.804688 -5.863281 29.96875 -11.992188 L 30.960938 -17.1875 C 32.1875 -23.644531 30.054688 -26.960938 23.644531 -28.179688 Z M 25.542969 -12.933594 C 24.6875 -8.441406 22.84375 -7.917969 19.003906 -8.648438 L 11.050781 -10.164062 L 14.054688 -25.933594 L 22.007812 -24.417969 C 26.3125 -23.597656 27.253906 -21.917969 26.46875 -17.796875 Z M 25.542969 -12.933594 "/></g></g></g><g clip-path="url(#e363929774)"><path fill="#f84a00" d="M 291.5625 230.421875 C 280.105469 225.695312 268.402344 221.78125 256.542969 218.683594 C 253.554688 230.035156 250.566406 241.390625 247.578125 252.746094 C 257.894531 255.441406 268.074219 258.84375 278.035156 262.957031 C 278.003906 256.59375 277.789062 250.191406 277.390625 243.769531 C 281.953125 239.210938 286.675781 234.761719 291.5625 230.421875 Z M 291.5625 230.421875 " fill-opacity="1" fill-rule="nonzero"/></g><g clip-path="url(#9fbecd7fa9)"><path fill="#f84a00" d="M 83.8125 230.421875 C 95.265625 225.695312 106.96875 221.78125 118.828125 218.683594 C 121.816406 230.039062 124.804688 241.390625 127.792969 252.746094 C 117.476562 255.441406 107.300781 258.84375 97.335938 262.957031 C 97.371094 256.59375 97.585938 250.191406 97.984375 243.769531 C 93.417969 239.210938 88.695312 234.761719 83.8125 230.421875 Z M 83.8125 230.421875 " fill-opacity="1" fill-rule="nonzero"/></g><path fill="#f82d00" d="M 247.578125 252.746094 C 252.710938 250.523438 258.003906 248.472656 263.453125 246.605469 C 259.066406 245.191406 254.652344 243.90625 250.207031 242.746094 C 249.332031 246.078125 248.453125 249.410156 247.578125 252.746094 Z M 247.578125 252.746094 " fill-opacity="1" fill-rule="nonzero"/><path fill="#f82d00" d="M 127.796875 252.746094 C 122.664062 250.523438 117.367188 248.472656 111.917969 246.605469 C 116.304688 245.191406 120.722656 243.90625 125.164062 242.746094 C 126.039062 246.078125 126.917969 249.410156 127.796875 252.746094 Z M 127.796875 252.746094 " fill-opacity="1" fill-rule="nonzero"/><g clip-path="url(#69b51c560c)"><path fill="#f85f00" d="M 100.964844 212.828125 C 104.585938 223.996094 108.207031 235.167969 111.832031 246.335938 C 161.136719 230.460938 214.234375 230.460938 263.539062 246.335938 C 267.160156 235.167969 270.785156 223.996094 274.40625 212.824219 C 218.035156 194.679688 157.332031 194.679688 100.964844 212.828125 Z M 100.964844 212.828125 " fill-opacity="1" fill-rule="nonzero"/></g><g fill="#ffffff" fill-opacity="1"><g transform="translate(120.084577, 234.557746)"><g><path d="M 5.578125 -0.671875 C 6.019531 -0.746094 6.453125 -0.972656 6.753906 -1.242188 C 7.050781 -1.507812 7.203125 -1.816406 7.140625 -2.101562 C 7.011719 -2.597656 6.796875 -3.703125 6.535156 -5.113281 C 6.269531 -6.523438 5.949219 -8.269531 5.632812 -10.09375 L 13.324219 -11.332031 C 14.054688 -11.453125 14.574219 -11.601562 14.890625 -11.96875 C 15.191406 -12.3125 15.296875 -12.832031 15.15625 -13.667969 C 15.105469 -13.972656 14.964844 -14.261719 14.773438 -14.464844 C 14.585938 -14.667969 14.363281 -14.773438 14.136719 -14.734375 C 13.957031 -14.6875 13.683594 -14.628906 13.335938 -14.554688 C 12.609375 -14.417969 11.625 -14.226562 10.46875 -14.035156 C 9.316406 -13.828125 8.070312 -13.605469 6.851562 -13.40625 C 6.242188 -13.304688 5.664062 -13.210938 5.117188 -13.117188 L 4.828125 -14.867188 C 4.722656 -15.398438 4.644531 -15.886719 4.566406 -16.359375 C 4.488281 -16.828125 4.414062 -17.269531 4.347656 -17.679688 L 4.144531 -18.898438 L 13.550781 -20.453125 C 14.449219 -20.585938 15.105469 -20.789062 15.488281 -21.210938 C 15.855469 -21.632812 15.988281 -22.25 15.820312 -23.269531 C 15.761719 -23.632812 15.578125 -23.992188 15.347656 -24.253906 C 15.117188 -24.511719 14.839844 -24.652344 14.601562 -24.597656 C 14.167969 -24.480469 13.273438 -24.300781 12.140625 -24.066406 C 10.992188 -23.828125 9.597656 -23.566406 8.199219 -23.320312 C 6.800781 -23.074219 5.375 -22.808594 4.175781 -22.59375 C 2.960938 -22.378906 1.945312 -22.195312 1.378906 -22.101562 L 0.832031 -22.011719 C 0.578125 -21.953125 0.304688 -21.90625 -0.015625 -21.855469 L -0.945312 -21.699219 C -1.28125 -21.644531 -1.628906 -21.585938 -1.976562 -21.515625 L -1.660156 -19.300781 L -0.523438 -19.519531 L 2.046875 -3.511719 C 2.238281 -2.355469 2.480469 -1.550781 3.011719 -1.078125 C 3.527344 -0.597656 4.316406 -0.464844 5.578125 -0.671875 Z M 5.578125 -0.671875 "/></g></g></g><g fill="#ffffff" fill-opacity="1"><g transform="translate(139.43675, 231.338174)"><g><path d="M 9.527344 -0.578125 C 13.207031 -0.972656 15.628906 -2.121094 17.0625 -3.777344 C 18.496094 -5.4375 18.929688 -7.59375 18.652344 -10.03125 C 18.542969 -10.90625 18.234375 -11.894531 17.742188 -12.710938 C 17.253906 -13.511719 16.597656 -14.109375 15.796875 -14.207031 L 16.71875 -15.003906 C 15.847656 -16.042969 14.667969 -16.753906 13.320312 -17.167969 C 11.960938 -17.5625 10.445312 -17.664062 8.851562 -17.492188 C 6.335938 -17.222656 4.035156 -16.382812 2.421875 -14.796875 C 0.808594 -13.210938 -0.0742188 -10.898438 0.261719 -7.660156 C 0.507812 -5.207031 1.414062 -3.285156 2.972656 -2.058594 C 4.519531 -0.828125 6.703125 -0.273438 9.527344 -0.578125 Z M 9.582031 -3.5 C 8.664062 -3.402344 7.609375 -3.660156 6.730469 -4.339844 C 5.851562 -5.019531 5.171875 -6.128906 4.996094 -7.769531 C 4.765625 -9.914062 5.269531 -11.414062 6.121094 -12.433594 C 6.976562 -13.441406 8.132812 -13.941406 9.28125 -14.0625 C 10.21875 -14.164062 11.042969 -13.988281 11.734375 -13.628906 C 12.421875 -13.269531 12.976562 -12.738281 13.398438 -12.148438 L 13.597656 -12.308594 C 13.601562 -11.984375 13.640625 -11.617188 13.730469 -11.207031 C 13.808594 -10.796875 13.886719 -10.355469 13.953125 -9.867188 C 14.054688 -9.070312 14.105469 -8.160156 13.953125 -7.277344 C 13.800781 -6.390625 13.445312 -5.53125 12.757812 -4.851562 C 12.070312 -4.15625 11.054688 -3.660156 9.582031 -3.5 Z M 9.582031 -3.5 "/></g></g></g><g fill="#ffffff" fill-opacity="1"><g transform="translate(159.686049, 229.145554)"><g><path d="M 9.542969 -0.0273438 C 13.242188 -0.214844 15.722656 -1.21875 17.25 -2.792969 C 18.777344 -4.367188 19.335938 -6.496094 19.199219 -8.945312 C 19.140625 -9.820312 18.886719 -10.828125 18.445312 -11.671875 C 18 -12.496094 17.382812 -13.132812 16.585938 -13.277344 L 17.554688 -14.019531 C 16.742188 -15.105469 15.609375 -15.882812 14.285156 -16.375 C 12.949219 -16.847656 11.441406 -17.035156 9.839844 -16.953125 C 7.3125 -16.828125 4.96875 -16.125 3.269531 -14.632812 C 1.566406 -13.144531 0.550781 -10.886719 0.699219 -7.632812 C 0.808594 -5.167969 1.601562 -3.199219 3.085938 -1.882812 C 4.558594 -0.566406 6.707031 0.113281 9.542969 -0.0273438 Z M 9.769531 -2.945312 C 8.84375 -2.898438 7.808594 -3.214844 6.96875 -3.945312 C 6.128906 -4.675781 5.515625 -5.820312 5.433594 -7.46875 C 5.324219 -9.625 5.917969 -11.089844 6.824219 -12.0625 C 7.734375 -13.019531 8.917969 -13.449219 10.074219 -13.507812 C 11.015625 -13.554688 11.828125 -13.332031 12.496094 -12.933594 C 13.164062 -12.535156 13.6875 -11.972656 14.074219 -11.359375 L 14.28125 -11.507812 C 14.265625 -11.183594 14.285156 -10.8125 14.351562 -10.402344 C 14.40625 -9.984375 14.457031 -9.539062 14.496094 -9.046875 C 14.554688 -8.25 14.550781 -7.335938 14.347656 -6.460938 C 14.144531 -5.585938 13.738281 -4.75 13.015625 -4.109375 C 12.289062 -3.457031 11.246094 -3.015625 9.769531 -2.945312 Z M 9.769531 -2.945312 "/></g></g></g><g fill="#ffffff" fill-opacity="1"><g transform="translate(180.073262, 228.190368)"><g><path d="M 8.160156 0.507812 C 8.945312 0.582031 10.089844 0.476562 11.167969 0.179688 C 12.246094 -0.113281 13.28125 -0.558594 13.851562 -1.128906 C 14.421875 -1.703125 14.574219 -2.394531 13.882812 -3.183594 C 13.695312 -3.382812 13.511719 -3.503906 13.308594 -3.535156 C 12.910156 -3.597656 12.460938 -3.445312 12.015625 -3.195312 C 11.785156 -3.074219 11.550781 -2.964844 11.320312 -2.855469 C 10.84375 -2.65625 10.363281 -2.503906 9.871094 -2.6875 C 8.636719 -2.792969 7.925781 -3.335938 7.511719 -4.214844 C 7.09375 -5.09375 6.96875 -6.296875 6.953125 -7.761719 C 6.953125 -7.898438 6.953125 -8.132812 6.96875 -8.484375 C 6.984375 -9.164062 7.03125 -10.152344 7.105469 -11.355469 L 7.199219 -13.238281 L 11.410156 -13.285156 C 11.734375 -13.285156 12.089844 -13.421875 12.351562 -13.640625 C 12.613281 -13.855469 12.796875 -14.148438 12.796875 -14.519531 C 12.796875 -15.460938 12.242188 -16.0625 11.6875 -16.046875 L 7.351562 -15.90625 L 7.492188 -18.34375 C 7.566406 -19.886719 7.660156 -21.164062 7.734375 -22.382812 L 3.03125 -22.289062 C 3 -21.6875 2.96875 -21.023438 2.925781 -20.316406 C 2.894531 -19.714844 2.863281 -19.019531 2.816406 -18.25 C 2.769531 -17.460938 2.742188 -16.644531 2.695312 -15.765625 L 0.566406 -15.703125 L 0.644531 -13.15625 L 2.570312 -13.171875 C 2.464844 -11.089844 2.417969 -9.117188 2.402344 -7.714844 C 2.390625 -5.199219 2.699219 -3.269531 3.578125 -1.882812 C 4.457031 -0.496094 5.890625 0.320312 8.160156 0.507812 Z M 8.160156 0.507812 "/></g></g></g><g fill="#ffffff" fill-opacity="1"><g transform="translate(194.800411, 228.085306)"><g><path d="M 12.179688 1.058594 C 13.457031 1.125 14.851562 0.996094 16.160156 0.523438 C 17.464844 0.046875 18.683594 -0.769531 19.628906 -2.050781 C 20.558594 -3.328125 21.234375 -5.070312 21.433594 -7.410156 C 21.65625 -9.683594 21.359375 -11.675781 20.429688 -13.144531 C 19.5 -14.597656 17.894531 -15.527344 15.476562 -15.652344 C 13.519531 -15.753906 12.058594 -15.242188 10.917969 -14.390625 C 9.777344 -13.535156 8.992188 -12.371094 8.390625 -11.183594 C 7.789062 -9.980469 7.417969 -8.761719 7.105469 -7.835938 C 7.128906 -8.253906 7.21875 -9.421875 7.324219 -10.914062 C 7.378906 -11.667969 7.4375 -12.484375 7.5 -13.375 L 7.683594 -16.039062 C 7.835938 -18.132812 8 -20.441406 8.191406 -22.976562 L 3.429688 -22.835938 L 2.300781 -0.886719 C 2.730469 -0.832031 3.171875 -0.75 3.617188 -0.648438 C 4.058594 -0.546875 4.472656 -0.449219 4.871094 -0.382812 C 5.664062 -0.21875 6.355469 -0.167969 6.761719 -0.515625 C 7.585938 0.28125 9.34375 0.914062 12.179688 1.058594 Z M 11.574219 -1.9375 C 10.527344 -1.992188 9.761719 -2.09375 9.101562 -2.21875 C 8.445312 -2.347656 7.929688 -2.496094 7.429688 -2.691406 C 7.699219 -4.035156 8.101562 -5.5625 8.636719 -7 C 9.175781 -8.441406 9.863281 -9.78125 10.746094 -10.753906 C 11.628906 -11.726562 12.726562 -12.304688 14.082031 -12.234375 C 15.992188 -12.136719 16.847656 -10.796875 16.707031 -8.023438 C 16.628906 -6.527344 16.230469 -5.328125 15.671875 -4.429688 C 15.117188 -3.515625 14.386719 -2.875 13.65625 -2.480469 C 12.925781 -2.070312 12.175781 -1.90625 11.574219 -1.9375 Z M 11.574219 -1.9375 "/></g></g></g><g fill="#ffffff" fill-opacity="1"><g transform="translate(216.61921, 229.211031)"><g><path d="M 17.550781 2.402344 C 17.933594 2.445312 18.261719 2.417969 18.535156 2.339844 C 19.0625 2.183594 19.402344 1.941406 19.566406 1.710938 C 19.640625 1.613281 19.675781 1.554688 19.695312 1.539062 C 19.640625 1.457031 19.59375 1.203125 19.535156 0.746094 C 19.476562 0.304688 19.441406 -0.367188 19.4375 -1.28125 C 19.421875 -3.101562 19.550781 -5.910156 20.058594 -10 C 19.890625 -10.046875 19.726562 -10.097656 19.546875 -10.164062 L 19.050781 -10.3125 C 18.855469 -10.367188 18.660156 -10.417969 18.464844 -10.488281 L 19.265625 -11.515625 C 18.445312 -12.367188 17.542969 -13.199219 16.390625 -13.855469 C 15.222656 -14.511719 13.820312 -14.996094 11.980469 -15.203125 C 10.507812 -15.367188 9.003906 -15.257812 7.601562 -14.792969 C 6.199219 -14.328125 4.929688 -13.523438 3.921875 -12.289062 C 2.898438 -11.050781 2.15625 -9.398438 1.839844 -7.261719 C 1.476562 -5.019531 1.78125 -3.011719 2.730469 -1.511719 C 3.679688 -0.0078125 5.242188 1.007812 7.433594 1.253906 C 9.824219 1.519531 11.496094 0.871094 12.707031 -0.222656 C 13.914062 -1.3125 14.65625 -2.8125 15.210938 -4.285156 C 15.011719 -2.523438 14.863281 -1.207031 14.980469 0.125 C 15.082031 0.882812 15.394531 1.414062 15.851562 1.777344 C 16.304688 2.136719 16.890625 2.328125 17.550781 2.402344 Z M 8.976562 -1.585938 C 8.136719 -1.679688 7.429688 -2.179688 6.964844 -3.007812 C 6.484375 -3.835938 6.25 -4.949219 6.40625 -6.34375 C 6.644531 -8.476562 7.519531 -9.898438 8.605469 -10.738281 C 9.695312 -11.578125 11.027344 -11.832031 12.191406 -11.703125 C 13.550781 -11.503906 14.660156 -10.601562 15.53125 -9.511719 C 15.128906 -8.253906 14.664062 -6.910156 14.09375 -5.683594 C 13.523438 -4.460938 12.84375 -3.386719 12.011719 -2.628906 C 11.183594 -1.867188 10.1875 -1.449219 8.976562 -1.585938 Z M 8.976562 -1.585938 "/></g></g></g><g fill="#ffffff" fill-opacity="1"><g transform="translate(237.43483, 231.666765)"><g><path d="M 4.949219 1.203125 C 5.390625 1.273438 5.824219 1.183594 6.179688 1.003906 C 6.523438 0.824219 6.777344 0.582031 6.925781 0.339844 C 6.9375 -0.0507812 7.058594 -0.9375 7.246094 -2.140625 L 7.558594 -4.152344 C 7.785156 -5.628906 8.0625 -7.304688 8.351562 -9.070312 C 8.503906 -9.953125 8.640625 -10.835938 8.792969 -11.71875 C 9.316406 -14.804688 9.894531 -18.226562 10.539062 -21.984375 L 10.148438 -21.980469 C 9.542969 -22.011719 8.527344 -22.09375 7.511719 -22.1875 C 6.496094 -22.28125 5.46875 -22.394531 4.917969 -22.480469 L 4.488281 -20.296875 L 5.726562 -20.152344 L 2.585938 -2.597656 C 2.347656 -1.445312 2.308594 -0.59375 2.648438 0.0195312 C 2.976562 0.632812 3.683594 1.007812 4.949219 1.203125 Z M 4.949219 1.203125 "/></g></g></g><g fill="#ffffff" fill-opacity="1"><g transform="translate(246.267046, 233.03286)"><g><path d="M 4.917969 1.328125 C 5.355469 1.40625 5.792969 1.328125 6.152344 1.160156 C 6.5 0.988281 6.761719 0.753906 6.914062 0.511719 C 6.9375 0.125 7.082031 -0.757812 7.296875 -1.957031 L 7.660156 -3.960938 C 7.925781 -5.433594 8.242188 -7.097656 8.578125 -8.855469 C 8.75 -9.734375 8.910156 -10.613281 9.085938 -11.492188 C 9.6875 -14.566406 10.351562 -17.972656 11.089844 -21.710938 L 10.699219 -21.71875 C 10.097656 -21.765625 9.082031 -21.871094 8.066406 -21.992188 C 7.054688 -22.109375 6.03125 -22.25 5.484375 -22.347656 L 4.996094 -20.179688 L 6.234375 -20.003906 L 2.652344 -2.53125 C 2.382812 -1.386719 2.324219 -0.535156 2.648438 0.0859375 C 2.960938 0.707031 3.65625 1.101562 4.917969 1.328125 Z M 4.917969 1.328125 "/></g></g></g><g fill="#000000" fill-opacity="1"><g transform="translate(159.402488, 263.480198)"><g><path d="M 3.367188 0.117188 C 4.71875 0.128906 6.292969 0.117188 7.773438 0.0976562 C 9.253906 0.0742188 10.660156 0.0195312 11.6875 -0.03125 C 12.203125 -0.128906 12.511719 -0.449219 12.640625 -0.816406 C 12.769531 -1.179688 12.738281 -1.609375 12.578125 -1.929688 C 12.40625 -2.25 12.105469 -2.464844 11.730469 -2.421875 C 10.539062 -2.304688 9.15625 -2.25 7.710938 -2.230469 C 6.261719 -2.207031 4.78125 -2.199219 3.441406 -2.199219 C 4.78125 -2.9375 6.175781 -3.785156 7.429688 -4.6875 C 8.675781 -5.585938 9.800781 -6.550781 10.605469 -7.539062 C 11.410156 -8.523438 11.902344 -9.53125 11.902344 -10.550781 C 11.902344 -12.234375 11.269531 -13.425781 10.207031 -14.195312 C 9.136719 -14.96875 7.632812 -15.324219 5.90625 -15.324219 C 4.492188 -15.324219 3.378906 -15.109375 2.5625 -14.828125 C 1.746094 -14.550781 1.210938 -14.21875 0.945312 -14.015625 L 2.1875 -12.214844 C 2.25 -12.246094 2.371094 -12.320312 2.550781 -12.425781 C 2.734375 -12.535156 2.960938 -12.640625 3.238281 -12.761719 C 3.796875 -12.984375 4.566406 -13.199219 5.480469 -13.199219 C 7.421875 -13.199219 8.429688 -12.425781 8.429688 -10.464844 C 8.429688 -9.820312 8.03125 -9.050781 7.398438 -8.234375 C 6.753906 -7.421875 5.898438 -6.5625 4.984375 -5.746094 C 4.074219 -4.933594 3.109375 -4.171875 2.261719 -3.539062 C 1.414062 -2.90625 0.707031 -2.402344 0.277344 -2.132812 C 0.0117188 -1.972656 -0.171875 -1.726562 -0.171875 -1.425781 C -0.171875 -0.996094 -0.0195312 -0.804688 0.105469 -0.632812 C 0.234375 -0.460938 0.332031 -0.3125 0.234375 0 C 0.867188 0.0546875 2.015625 0.105469 3.367188 0.117188 Z M 3.367188 0.117188 "/></g></g></g><g fill="#000000" fill-opacity="1"><g transform="translate(172.692053, 263.480198)"><g><path d="M 7.6875 0.277344 C 9.050781 0.277344 10.367188 0.0195312 11.527344 -0.515625 C 12.683594 -1.050781 13.671875 -1.886719 14.378906 -3.054688 C 15.085938 -4.226562 15.496094 -5.738281 15.496094 -7.632812 C 15.496094 -9.832031 14.839844 -11.699219 13.648438 -13.027344 C 12.449219 -14.347656 10.742188 -15.109375 8.640625 -15.109375 C 6.660156 -15.109375 5.082031 -14.679688 3.882812 -13.949219 C 2.671875 -13.222656 1.824219 -12.203125 1.277344 -11.011719 C 0.730469 -9.820312 0.492188 -8.472656 0.503906 -7.085938 C 0.515625 -6.242188 0.707031 -5.320312 1.03125 -4.589844 C 1.351562 -3.847656 1.800781 -3.300781 2.390625 -3.226562 L 1.617188 -2.722656 C 2.25 -1.703125 3.109375 -0.953125 4.140625 -0.460938 C 5.167969 0.03125 6.371094 0.277344 7.6875 0.277344 Z M 7.625 -2.089844 C 6.710938 -2.089844 5.917969 -2.347656 5.277344 -2.746094 C 4.632812 -3.132812 4.140625 -3.65625 3.828125 -4.183594 L 3.515625 -3.976562 C 3.550781 -4.128906 3.558594 -4.300781 3.558594 -4.492188 C 3.558594 -4.6875 3.550781 -4.898438 3.539062 -5.148438 C 3.496094 -5.617188 3.453125 -6.207031 3.441406 -6.894531 C 3.410156 -7.71875 3.507812 -8.664062 3.785156 -9.542969 C 4.0625 -10.421875 4.523438 -11.226562 5.265625 -11.828125 C 6.003906 -12.417969 7.023438 -12.792969 8.394531 -12.792969 C 9.296875 -12.792969 10.273438 -12.417969 11.035156 -11.601562 C 11.792969 -10.777344 12.320312 -9.488281 12.320312 -7.644531 C 12.320312 -5.585938 11.699219 -4.191406 10.796875 -3.324219 C 9.898438 -2.457031 8.726562 -2.089844 7.625 -2.089844 Z M 7.625 -2.089844 "/></g></g></g><g fill="#000000" fill-opacity="1"><g transform="translate(189.239705, 263.480198)"><g><path d="M 3.367188 0.117188 C 4.71875 0.128906 6.292969 0.117188 7.773438 0.0976562 C 9.253906 0.0742188 10.660156 0.0195312 11.6875 -0.03125 C 12.203125 -0.128906 12.511719 -0.449219 12.640625 -0.816406 C 12.769531 -1.179688 12.738281 -1.609375 12.578125 -1.929688 C 12.40625 -2.25 12.105469 -2.464844 11.730469 -2.421875 C 10.539062 -2.304688 9.15625 -2.25 7.710938 -2.230469 C 6.261719 -2.207031 4.78125 -2.199219 3.441406 -2.199219 C 4.78125 -2.9375 6.175781 -3.785156 7.429688 -4.6875 C 8.675781 -5.585938 9.800781 -6.550781 10.605469 -7.539062 C 11.410156 -8.523438 11.902344 -9.53125 11.902344 -10.550781 C 11.902344 -12.234375 11.269531 -13.425781 10.207031 -14.195312 C 9.136719 -14.96875 7.632812 -15.324219 5.90625 -15.324219 C 4.492188 -15.324219 3.378906 -15.109375 2.5625 -14.828125 C 1.746094 -14.550781 1.210938 -14.21875 0.945312 -14.015625 L 2.1875 -12.214844 C 2.25 -12.246094 2.371094 -12.320312 2.550781 -12.425781 C 2.734375 -12.535156 2.960938 -12.640625 3.238281 -12.761719 C 3.796875 -12.984375 4.566406 -13.199219 5.480469 -13.199219 C 7.421875 -13.199219 8.429688 -12.425781 8.429688 -10.464844 C 8.429688 -9.820312 8.03125 -9.050781 7.398438 -8.234375 C 6.753906 -7.421875 5.898438 -6.5625 4.984375 -5.746094 C 4.074219 -4.933594 3.109375 -4.171875 2.261719 -3.539062 C 1.414062 -2.90625 0.707031 -2.402344 0.277344 -2.132812 C 0.0117188 -1.972656 -0.171875 -1.726562 -0.171875 -1.425781 C -0.171875 -0.996094 -0.0195312 -0.804688 0.105469 -0.632812 C 0.234375 -0.460938 0.332031 -0.3125 0.234375 0 C 0.867188 0.0546875 2.015625 0.105469 3.367188 0.117188 Z M 3.367188 0.117188 "/></g></g></g><g fill="#000000" fill-opacity="1"><g transform="translate(202.52927, 263.480198)"><g><path d="M 5.480469 0.289062 C 7.207031 0.289062 8.824219 -0.0859375 10.015625 -0.867188 C 11.207031 -1.652344 11.957031 -2.863281 11.957031 -4.535156 C 11.957031 -5.746094 11.613281 -6.59375 10.96875 -7.183594 C 10.316406 -7.773438 9.351562 -8.105469 8.105469 -8.289062 C 8.804688 -8.535156 9.46875 -8.890625 9.949219 -9.371094 C 10.421875 -9.855469 10.734375 -10.476562 10.734375 -11.289062 C 10.734375 -12.332031 10.410156 -13.125 9.886719 -13.714844 C 9.359375 -14.304688 8.632812 -14.679688 7.804688 -14.925781 C 6.980469 -15.171875 6.070312 -15.257812 5.179688 -15.257812 C 4.234375 -15.257812 3.429688 -15.152344 2.765625 -15.011719 C 2.101562 -14.871094 1.578125 -14.691406 1.222656 -14.519531 L 1.746094 -12.675781 C 2.445312 -12.898438 3.472656 -13.113281 4.589844 -13.113281 C 4.804688 -13.113281 5.199219 -13.09375 5.628906 -12.996094 C 6.058594 -12.898438 6.53125 -12.707031 6.882812 -12.375 C 7.238281 -12.03125 7.496094 -11.546875 7.496094 -10.828125 C 7.496094 -10.464844 7.421875 -10.15625 7.28125 -9.90625 C 6.992188 -9.394531 6.53125 -9.070312 5.972656 -8.890625 C 5.402344 -8.707031 4.847656 -8.609375 4.375 -8.578125 C 4.128906 -8.558594 3.933594 -8.535156 3.796875 -8.515625 L 3.785156 -8.515625 C 3.453125 -8.515625 3.269531 -8.320312 3.195312 -8.0625 C 3.109375 -7.804688 3.140625 -7.484375 3.28125 -7.238281 C 3.410156 -6.980469 3.644531 -6.789062 3.976562 -6.820312 C 4.308594 -6.832031 4.644531 -6.832031 4.996094 -6.832031 C 5.351562 -6.832031 5.695312 -6.808594 6.027344 -6.777344 C 6.703125 -6.691406 7.3125 -6.53125 7.753906 -6.199219 C 8.191406 -5.867188 8.480469 -5.359375 8.480469 -4.621094 C 8.480469 -3.636719 8.105469 -2.9375 7.496094 -2.476562 C 6.882812 -2.015625 6.015625 -1.8125 5.039062 -1.8125 C 4.578125 -1.8125 4.160156 -1.84375 3.785156 -1.917969 C 3.023438 -2.058594 2.464844 -2.25 2.101562 -2.421875 L 1.726562 -2.605469 C 1.46875 -2.820312 1.15625 -2.863281 0.890625 -2.777344 C 0.621094 -2.691406 0.363281 -2.488281 0.203125 -2.199219 C -0.0429688 -1.738281 0.0546875 -1.148438 0.484375 -0.816406 C 0.75 -0.609375 1.222656 -0.332031 2.003906 -0.105469 C 2.789062 0.117188 3.902344 0.289062 5.480469 0.289062 Z M 5.480469 0.289062 "/></g></g></g></svg>